<svg data-v-423bf9ae="" xmlns="http://www.w3.org/2000/svg" viewBox="0 0 588 90" class="iconLeft"><!----><!----><!----><g data-v-423bf9ae="" id="a9f6d473-0ca0-46e3-81ab-852e04982c93" fill="#ffffff" transform="matrix(5.725190568780254,0,0,5.725190568780254,101.5839677996353,-3.0916038808355495)"><path d="M9.55 13.55L8.02 13.55L5.91 10.54L5.91 10.54Q5.52 10.57 5.29 10.57L5.29 10.57L2.87 10.57L2.87 13.55L1.47 13.55L1.47 3.75L5.29 3.75L5.29 3.75Q7.20 3.75 8.29 4.66L8.29 4.66L8.29 4.66Q9.38 5.57 9.38 7.17L9.38 7.17L9.38 7.17Q9.38 8.30 8.82 9.10L8.82 9.10L8.82 9.10Q8.26 9.90 7.22 10.26L7.22 10.26L9.55 13.55ZM5.25 9.38L5.25 9.38Q6.58 9.38 7.28 8.81L7.28 8.81L7.28 8.81Q7.98 8.23 7.98 7.17L7.98 7.17L7.98 7.17Q7.98 6.10 7.28 5.54L7.28 5.54L7.28 5.54Q6.58 4.97 5.25 4.97L5.25 4.97L2.87 4.97L2.87 9.38L5.25 9.38ZM18.16 9.88L18.16 9.88Q18.16 10.04 18.13 10.29L18.13 10.29L12.11 10.29L12.11 10.29Q12.24 11.27 12.97 11.87L12.97 11.87L12.97 11.87Q13.71 12.46 14.80 12.46L14.80 12.46L14.80 12.46Q16.13 12.46 16.94 11.56L16.94 11.56L17.68 12.43L17.68 12.43Q17.18 13.02 16.43 13.33L16.43 13.33L16.43 13.33Q15.68 13.64 14.76 13.64L14.76 13.64L14.76 13.64Q13.58 13.64 12.67 13.15L12.67 13.15L12.67 13.15Q11.76 12.67 11.26 11.80L11.26 11.80L11.26 11.80Q10.77 10.93 10.77 9.84L10.77 9.84L10.77 9.84Q10.77 8.76 11.25 7.90L11.25 7.90L11.25 7.90Q11.73 7.03 12.58 6.54L12.58 6.54L12.58 6.54Q13.43 6.06 14.49 6.06L14.49 6.06L14.49 6.06Q15.55 6.06 16.39 6.54L16.39 6.54L16.39 6.54Q17.22 7.03 17.69 7.90L17.69 7.90L17.69 7.90Q18.16 8.76 18.16 9.88L18.16 9.88ZM14.49 7.20L14.49 7.20Q13.52 7.20 12.87 7.78L12.87 7.78L12.87 7.78Q12.22 8.37 12.11 9.32L12.11 9.32L16.87 9.32L16.87 9.32Q16.76 8.39 16.11 7.79L16.11 7.79L16.11 7.79Q15.46 7.20 14.49 7.20L14.49 7.20ZM23.77 12.15L24.19 13.12L24.19 13.12Q23.90 13.37 23.46 13.50L23.46 13.50L23.46 13.50Q23.03 13.64 22.57 13.64L22.57 13.64L22.57 13.64Q21.45 13.64 20.83 13.03L20.83 13.03L20.83 13.03Q20.22 12.43 20.22 11.31L20.22 11.31L20.22 7.24L18.96 7.24L18.96 6.13L20.22 6.13L20.22 4.51L21.56 4.51L21.56 6.13L23.69 6.13L23.69 7.24L21.56 7.24L21.56 11.26L21.56 11.26Q21.56 11.86 21.86 12.18L21.86 12.18L21.86 12.18Q22.16 12.50 22.72 12.50L22.72 12.50L22.72 12.50Q23.34 12.50 23.77 12.15L23.77 12.15ZM27.10 7.38L27.10 7.38Q27.45 6.73 28.14 6.40L28.14 6.40L28.14 6.40Q28.83 6.06 29.81 6.06L29.81 6.06L29.81 7.36L29.81 7.36Q29.69 7.35 29.50 7.35L29.50 7.35L29.50 7.35Q28.41 7.35 27.78 8.00L27.78 8.00L27.78 8.00Q27.16 8.65 27.16 9.86L27.16 9.86L27.16 13.55L25.82 13.55L25.82 6.13L27.10 6.13L27.10 7.38ZM34.73 13.64L34.73 13.64Q33.63 13.64 32.75 13.15L32.75 13.15L32.75 13.15Q31.86 12.66 31.37 11.79L31.37 11.79L31.37 11.79Q30.87 10.93 30.87 9.84L30.87 9.84L30.87 9.84Q30.87 8.75 31.37 7.89L31.37 7.89L31.37 7.89Q31.86 7.03 32.75 6.54L32.75 6.54L32.75 6.54Q33.63 6.06 34.73 6.06L34.73 6.06L34.73 6.06Q35.84 6.06 36.72 6.54L36.72 6.54L36.72 6.54Q37.59 7.03 38.09 7.89L38.09 7.89L38.09 7.89Q38.58 8.75 38.58 9.84L38.58 9.84L38.58 9.84Q38.58 10.93 38.09 11.79L38.09 11.79L38.09 11.79Q37.59 12.66 36.72 13.15L36.72 13.15L36.72 13.15Q35.84 13.64 34.73 13.64L34.73 13.64ZM34.73 12.46L34.73 12.46Q35.45 12.46 36.02 12.13L36.02 12.13L36.02 12.13Q36.58 11.80 36.90 11.21L36.90 11.21L36.90 11.21Q37.23 10.61 37.23 9.84L37.23 9.84L37.23 9.84Q37.23 9.07 36.90 8.48L36.90 8.48L36.90 8.48Q36.58 7.88 36.02 7.56L36.02 7.56L36.02 7.56Q35.45 7.24 34.73 7.24L34.73 7.24L34.73 7.24Q34.02 7.24 33.45 7.56L33.45 7.56L33.45 7.56Q32.89 7.88 32.56 8.48L32.56 8.48L32.56 8.48Q32.23 9.07 32.23 9.84L32.23 9.84L32.23 9.84Q32.23 10.61 32.56 11.21L32.56 11.21L32.56 11.21Q32.89 11.80 33.45 12.13L33.45 12.13L33.45 12.13Q34.02 12.46 34.73 12.46L34.73 12.46ZM51.00 8.47L51.00 8.47Q51.86 8.71 52.35 9.33L52.35 9.33L52.35 9.33Q52.84 9.95 52.84 10.91L52.84 10.91L52.84 10.91Q52.84 12.18 51.88 12.87L51.88 12.87L51.88 12.87Q50.92 13.55 49.08 13.55L49.08 13.55L44.41 13.55L44.41 3.75L48.80 3.75L48.80 3.75Q50.48 3.75 51.40 4.42L51.40 4.42L51.40 4.42Q52.32 5.10 52.32 6.29L52.32 6.29L52.32 6.29Q52.32 7.06 51.96 7.62L51.96 7.62L51.96 7.62Q51.60 8.18 51.00 8.47L51.00 8.47ZM48.68 4.89L45.81 4.89L45.81 8.02L48.68 8.02L48.68 8.02Q49.76 8.02 50.34 7.62L50.34 7.62L50.34 7.62Q50.92 7.22 50.92 6.45L50.92 6.45L50.92 6.45Q50.92 5.68 50.34 5.29L50.34 5.29L50.34 5.29Q49.76 4.89 48.68 4.89L48.68 4.89ZM49.03 12.42L49.03 12.42Q50.22 12.42 50.82 12.03L50.82 12.03L50.82 12.03Q51.42 11.63 51.42 10.79L51.42 10.79L51.42 10.79Q51.42 9.16 49.03 9.16L49.03 9.16L45.81 9.16L45.81 12.42L49.03 12.42ZM57.99 13.64L57.99 13.64Q56.88 13.64 56 13.15L56 13.15L56 13.15Q55.12 12.66 54.62 11.79L54.62 11.79L54.62 11.79Q54.12 10.93 54.12 9.84L54.12 9.84L54.12 9.84Q54.12 8.75 54.62 7.89L54.62 7.89L54.62 7.89Q55.12 7.03 56 6.54L56 6.54L56 6.54Q56.88 6.06 57.99 6.06L57.99 6.06L57.99 6.06Q59.09 6.06 59.97 6.54L59.97 6.54L59.97 6.54Q60.84 7.03 61.34 7.89L61.34 7.89L61.34 7.89Q61.84 8.75 61.84 9.84L61.84 9.84L61.84 9.84Q61.84 10.93 61.34 11.79L61.34 11.79L61.34 11.79Q60.84 12.66 59.97 13.15L59.97 13.15L59.97 13.15Q59.09 13.64 57.99 13.64L57.99 13.64ZM57.99 12.46L57.99 12.46Q58.70 12.46 59.27 12.13L59.27 12.13L59.27 12.13Q59.84 11.80 60.16 11.21L60.16 11.21L60.16 11.21Q60.48 10.61 60.48 9.84L60.48 9.84L60.48 9.84Q60.48 9.07 60.16 8.48L60.16 8.48L60.16 8.48Q59.84 7.88 59.27 7.56L59.27 7.56L59.27 7.56Q58.70 7.24 57.99 7.24L57.99 7.24L57.99 7.24Q57.27 7.24 56.71 7.56L56.71 7.56L56.71 7.56Q56.14 7.88 55.81 8.48L55.81 8.48L55.81 8.48Q55.48 9.07 55.48 9.84L55.48 9.84L55.48 9.84Q55.48 10.61 55.81 11.21L55.81 11.21L55.81 11.21Q56.14 11.80 56.71 12.13L56.71 12.13L56.71 12.13Q57.27 12.46 57.99 12.46L57.99 12.46ZM66.40 6.06L66.40 6.06Q67.94 6.06 68.76 6.82L68.76 6.82L68.76 6.82Q69.58 7.57 69.58 9.07L69.58 9.07L69.58 13.55L68.31 13.55L68.31 12.57L68.31 12.57Q67.97 13.09 67.35 13.36L67.35 13.36L67.35 13.36Q66.72 13.64 65.87 13.64L65.87 13.64L65.87 13.64Q64.62 13.64 63.88 13.03L63.88 13.03L63.88 13.03Q63.13 12.43 63.13 11.45L63.13 11.45L63.13 11.45Q63.13 10.47 63.84 9.88L63.84 9.88L63.84 9.88Q64.55 9.28 66.11 9.28L66.11 9.28L68.24 9.28L68.24 9.02L68.24 9.02Q68.24 8.15 67.73 7.69L67.73 7.69L67.73 7.69Q67.23 7.22 66.25 7.22L66.25 7.22L66.25 7.22Q65.59 7.22 64.96 7.44L64.96 7.44L64.96 7.44Q64.33 7.66 63.90 8.02L63.90 8.02L63.34 7.01L63.34 7.01Q63.91 6.55 64.71 6.31L64.71 6.31L64.71 6.31Q65.51 6.06 66.40 6.06L66.40 6.06ZM66.09 12.60L66.09 12.60Q66.86 12.60 67.42 12.26L67.42 12.26L67.42 12.26Q67.98 11.91 68.24 11.28L68.24 11.28L68.24 10.25L66.16 10.25L66.16 10.25Q64.46 10.25 64.46 11.40L64.46 11.40L64.46 11.40Q64.46 11.96 64.89 12.28L64.89 12.28L64.89 12.28Q65.32 12.60 66.09 12.60L66.09 12.60ZM73.36 7.38L73.36 7.38Q73.71 6.73 74.40 6.40L74.40 6.40L74.40 6.40Q75.08 6.06 76.06 6.06L76.06 6.06L76.06 7.36L76.06 7.36Q75.95 7.35 75.75 7.35L75.75 7.35L75.75 7.35Q74.66 7.35 74.04 8.00L74.04 8.00L74.04 8.00Q73.42 8.65 73.42 9.86L73.42 9.86L73.42 13.55L72.07 13.55L72.07 6.13L73.36 6.13L73.36 7.38ZM83.47 3.16L84.81 3.16L84.81 13.55L83.52 13.55L83.52 12.38L83.52 12.38Q83.08 12.99 82.39 13.31L82.39 13.31L82.39 13.31Q81.70 13.64 80.88 13.64L80.88 13.64L80.88 13.64Q79.80 13.64 78.95 13.16L78.95 13.16L78.95 13.16Q78.09 12.68 77.61 11.82L77.61 11.82L77.61 11.82Q77.13 10.96 77.13 9.84L77.13 9.84L77.13 9.84Q77.13 8.72 77.61 7.87L77.61 7.87L77.61 7.87Q78.09 7.01 78.95 6.54L78.95 6.54L78.95 6.54Q79.80 6.06 80.88 6.06L80.88 6.06L80.88 6.06Q81.68 6.06 82.35 6.36L82.35 6.36L82.35 6.36Q83.02 6.66 83.47 7.25L83.47 7.25L83.47 3.16ZM80.99 12.46L80.99 12.46Q81.69 12.46 82.26 12.13L82.26 12.13L82.26 12.13Q82.84 11.80 83.16 11.21L83.16 11.21L83.16 11.21Q83.48 10.61 83.48 9.84L83.48 9.84L83.48 9.84Q83.48 9.07 83.16 8.48L83.16 8.48L83.16 8.48Q82.84 7.88 82.26 7.56L82.26 7.56L82.26 7.56Q81.69 7.24 80.99 7.24L80.99 7.24L80.99 7.24Q80.28 7.24 79.71 7.56L79.71 7.56L79.71 7.56Q79.14 7.88 78.81 8.48L78.81 8.48L78.81 8.48Q78.48 9.07 78.48 9.84L78.48 9.84L78.48 9.84Q78.48 10.61 78.81 11.21L78.81 11.21L78.81 11.21Q79.14 11.80 79.71 12.13L79.71 12.13L79.71 12.13Q80.28 12.46 80.99 12.46L80.99 12.46Z"></path></g><!----><g data-v-423bf9ae="" id="09d19cbe-685e-49d0-9e58-36a9a7dbe067" transform="matrix(4.5,0,0,4.5,-9,-9)" stroke="none" fill="#3847C7"><g><rect x="2" y="2" width="6" height="20" rx="1"></rect><rect x="9" y="2" width="6" height="12" rx="1"></rect><rect x="16" y="2" width="6" height="16" rx="1"></rect></g></g><!----></svg>