<svg data-v-423bf9ae="" xmlns="http://www.w3.org/2000/svg" viewBox="0 0 543 90" class="iconLeft"><!----><!----><!----><g data-v-423bf9ae="" id="1214efe7-aae1-4c45-930b-4710f7911cff" fill="black" transform="matrix(6.0180540013045345,0,0,6.0180540013045345,111.50048775199718,10.787361019130081)"><path d="M4.83 7.31L5.94 10.50L8.05 10.50L6.69 6.86C7.56 6.31 8.09 5.43 8.09 4.12C8.09 1.95 6.90 0.98 4.73 0.98L1.04 0.98L1.04 10.50L2.97 10.50L2.97 7.31ZM6.12 4.14C6.12 4.98 5.73 5.66 4.76 5.66L2.97 5.66L2.97 2.63L4.73 2.63C5.66 2.63 6.12 3.23 6.12 4.14ZM12.39 9.02C11.38 9.02 10.99 8.64 10.98 7.80L15.09 7.80L15.23 6.50C15.23 4.38 14.24 3.33 12.18 3.33C10.14 3.33 9.09 4.61 9.09 7.10C9.09 9.62 9.98 10.67 12.10 10.67C13.40 10.67 15.01 10.28 15.01 10.28L14.98 8.89C14.98 8.89 13.54 9.02 12.39 9.02ZM10.96 6.37C10.98 5.31 11.28 4.87 12.18 4.87C13.06 4.87 13.38 5.24 13.38 6.37ZM20.45 5.10L20.45 3.50L18.73 3.50L18.73 1.55L16.86 1.55L16.86 3.50L16.03 3.50L16.03 5.10L16.86 5.10L16.86 8.01C16.86 10.02 17.35 10.67 19.04 10.67C19.53 10.67 20.47 10.46 20.47 10.46L20.38 8.96C20.38 8.96 19.71 8.99 19.32 8.99C18.73 8.99 18.73 8.67 18.73 7.97L18.73 5.10ZM21.67 10.50L23.55 10.50L23.55 5.81C23.55 5.81 24.54 5.46 25.77 5.22L25.77 3.33C24.71 3.54 23.53 4.24 23.53 4.24L23.53 3.50L21.67 3.50ZM29.74 3.33C27.30 3.33 26.52 4.83 26.52 6.99C26.52 9.14 27.30 10.67 29.74 10.67C32.17 10.67 32.96 9.14 32.96 6.99C32.96 4.83 32.17 3.33 29.74 3.33ZM29.74 9.07C28.70 9.07 28.42 8.34 28.42 6.99C28.42 5.63 28.70 4.93 29.74 4.93C30.77 4.93 31.05 5.63 31.05 6.99C31.05 8.34 30.77 9.07 29.74 9.07ZM37.58 0.98L37.58 10.50L41.37 10.50C43.27 10.50 44.46 9.67 44.46 7.77C44.46 6.54 44.04 5.95 43.23 5.60C43.99 5.12 44.28 4.58 44.28 3.50C44.28 1.68 43.23 0.98 41.31 0.98ZM41.27 6.52C42.04 6.52 42.50 6.89 42.50 7.67C42.50 8.61 42.07 8.85 41.27 8.85L39.51 8.85L39.51 6.52ZM41.22 2.63C41.94 2.63 42.32 2.97 42.32 3.75C42.32 4.51 41.99 4.90 41.23 4.90L39.51 4.90L39.51 2.63ZM48.79 3.33C46.35 3.33 45.57 4.83 45.57 6.99C45.57 9.14 46.35 10.67 48.79 10.67C51.23 10.67 52.01 9.14 52.01 6.99C52.01 4.83 51.23 3.33 48.79 3.33ZM48.79 9.07C47.75 9.07 47.47 8.34 47.47 6.99C47.47 5.63 47.75 4.93 48.79 4.93C49.83 4.93 50.11 5.63 50.11 6.99C50.11 8.34 49.83 9.07 48.79 9.07ZM58.74 5.68C58.74 4.05 58.02 3.33 56.20 3.33C54.85 3.33 53.35 3.74 53.35 3.74L53.41 5.04C53.41 5.04 55.12 4.93 56.04 4.93C56.60 4.93 56.87 5.08 56.87 5.68L56.87 6.12L55.37 6.23C53.83 6.34 52.92 6.79 52.92 8.37C52.92 9.86 53.62 10.67 55.09 10.67C56.14 10.67 57.15 10.18 57.15 10.18C57.74 10.57 58.21 10.67 59.15 10.67L59.21 9.25C58.83 9.18 58.77 9.02 58.74 8.60ZM56.87 7.42L56.87 8.92C56.87 8.92 56.10 9.14 55.50 9.14C54.99 9.14 54.81 8.81 54.81 8.32C54.81 7.81 55.10 7.57 55.59 7.53ZM60.54 10.50L62.41 10.50L62.41 5.81C62.41 5.81 63.41 5.46 64.64 5.22L64.64 3.33C63.57 3.54 62.40 4.24 62.40 4.24L62.40 3.50L60.54 3.50ZM71.69 0.70L69.82 0.70L69.82 3.53C69.82 3.53 68.82 3.33 68.31 3.33C66.40 3.33 65.41 4.41 65.41 6.97C65.41 9.44 66.02 10.67 68.14 10.67C68.85 10.67 69.83 10.21 69.83 10.21L69.83 10.50L71.69 10.50ZM68.46 8.99C67.58 8.99 67.31 8.40 67.31 6.97C67.31 5.56 67.75 4.96 68.45 4.96C69.05 4.96 69.82 5.10 69.82 5.10L69.82 8.78C69.82 8.78 69.12 8.99 68.46 8.99Z"></path></g><!----><g data-v-423bf9ae="" id="7595c1eb-ae37-479a-a773-e6106288c923" transform="matrix(1.2190497606487611,0,0,1.2190497606487611,-10.938263251657837,-14.703073870927923)" stroke="none" fill="black"><path d="M55.894 49.046v1.992c0 2.509 1.142 3.675 3.328 3.675h2.757c2.606 0 4.379 2.119 4.379 4.375v2.318c0 2.509-1.137 4.021-3.795 4.021h-3.196c-2.796 0-4.253-1.278-4.253-3.889V59.38c0-2.059-1.479-3.41-3.281-3.41h-4.759c-2.38 0-2.959 1.608-2.959 3.41v4.249c0 2.252 1.351 3.024 3.088 3.024h2.931c3.31 0 4.9 1.452 4.9 3.77v1.601c0 2.634 1.498 3.632 3.881 3.632h4.915c2.433 0 3.622-1.284 3.622-3.479v-1.796c0-3.023 1.676-3.988 4.893-3.988h3.384c1.866 0 2.725-1.158 2.725-2.702v-6.24c0-2.058-1.158-3.023-3.409-3.023h-4.054c-2.419 0-4.588-1.829-4.588-5.21v-1.992c0-2.509-1.142-3.675-3.329-3.675h-2.757c-2.606 0-4.379-2.118-4.379-4.374v-2.318c0-2.509 1.138-4.021 3.796-4.021h3.195c2.796 0 4.254 1.278 4.254 3.889v2.158c0 2.059 1.479 3.409 3.281 3.409h4.758c2.38 0 2.959-1.608 2.959-3.409v-4.249c0-2.251-1.351-3.023-3.088-3.023h-2.931c-3.31 0-4.9-1.452-4.9-3.77v-1.516c0-2.633-1.425-3.717-3.808-3.717h-4.988c-2.433 0-3.622 1.284-3.622 3.48v1.795c0 3.023-1.676 3.988-4.893 3.988h-3.385c-1.865 0-2.724 1.158-2.724 2.702v6.24c0 2.059 1.157 3.024 3.41 3.024h4.052c2.421-.003 4.59 1.826 4.59 5.207zM86.07 54.482a3.521 3.521 0 0 0 3.521-3.521v-2.688a3.521 3.521 0 0 0-3.521-3.522h-2.688a3.522 3.522 0 0 0-3.521 3.522v2.688a3.521 3.521 0 0 0 3.521 3.521h2.688z"></path><path d="M36.547 31.871h3.008c2.251 0 3.409-.965 3.409-3.023v-1.974c.113-3.194 2.224-4.658 4.578-4.658h3.008c2.253 0 3.41-.965 3.41-3.023v-4.151c0-1.544-.858-2.702-2.724-2.702h-5.695c-1.846 0-2.631.855-2.631 2.782v2.434c0 2.195-1.681 4.253-4.171 4.364h-4.194c-1.845 0-2.631.855-2.631 2.782v2.508c0 2.256-1.771 4.375-4.379 4.375h-2.757c-2.188 0-3.329 1.165-3.329 3.674v3.071c0 3.381-2.168 5.21-4.588 5.21h-4.054c-2.251 0-3.409.965-3.409 3.023v6.766c0 2.059 1.158 3.023 3.409 3.023h4.054c2.42 0 4.588 1.049 4.588 4.431v2.412c0 2.509 1.142 3.674 3.329 3.674h2.757c2.607 0 4.379 2.119 4.379 4.375v2.539c0 1.927.786 2.782 2.631 2.782h4.213l-.021.024c2.491.11 4.171 2.169 4.171 4.364v2.433c0 1.927.785 2.782 2.631 2.782h5.694c1.866 0 2.725-1.158 2.725-2.702v-4.151c0-2.059-1.158-3.024-3.409-3.024H47.54c-2.348 0-4.453-1.457-4.576-4.633v-2.053c0-2.059-1.158-3.023-3.409-3.023h-3.008c-2.421 0-4.59-1.828-4.59-5.209V59.74c0-2.509 1.143-3.674 3.33-3.674h2.756c2.607 0 4.38-2.119 4.38-4.375V48.2c0-2.256-1.772-4.375-4.38-4.375h-2.756c-2.188 0-3.33-1.166-3.33-3.674v-3.36c0-3.38 2.169-4.92 4.59-4.92z"></path></g><!----></svg>