<svg xmlns="http://www.w3.org/2000/svg" viewBox="0 0 500 500"><g id="background-complete--inject-1"><circle cx="412.82" cy="129.13" r="29.24" style="fill:#e0e0e0"></circle><path d="M423.87,136.54a4.45,4.45,0,0,1-.94-.44l-2.5-1.35c-2.11-1.16-5-2.81-8.33-4.7l-.22-.13.13-.22.94-1.65c2.12-3.67,4.06-7,5.49-9.35l1.71-2.81a4.86,4.86,0,0,1,.69-1,5.16,5.16,0,0,1-.52,1.09l-1.56,2.89c-1.35,2.43-3.24,5.76-5.36,9.43l-.94,1.65-.1-.36c3.28,1.9,6.18,3.61,8.24,4.85l2.43,1.49A4,4,0,0,1,423.87,136.54Z" style="fill:#fafafa"></path><path d="M425,107.92a5.84,5.84,0,0,1-1,2.26c-.67,1.18-1.32,2.07-1.45,2a6.09,6.09,0,0,1,1-2.26C424.19,108.75,424.84,107.85,425,107.92Z" style="fill:#fafafa"></path><path d="M434.54,118a11.44,11.44,0,0,1-4.68,1.26,5.87,5.87,0,0,1,2.27-.88A6,6,0,0,1,434.54,118Z" style="fill:#fafafa"></path><path d="M437,129.26a16.81,16.81,0,0,1-4.84.11,5.16,5.16,0,0,1,2.42-.4A4.93,4.93,0,0,1,437,129.26Z" style="fill:#fafafa"></path><path d="M434.68,142.48a11.36,11.36,0,0,1-3-1.45,10.78,10.78,0,0,1-2.77-1.9,11.36,11.36,0,0,1,3,1.45A10.78,10.78,0,0,1,434.68,142.48Z" style="fill:#fafafa"></path><path d="M394.67,118.89a19.07,19.07,0,0,1-5.48-3.16,9.83,9.83,0,0,1,2.87,1.36A10.06,10.06,0,0,1,394.67,118.89Z" style="fill:#fafafa"></path><path d="M392.82,128.68a10,10,0,0,1-3.14.75,9.79,9.79,0,0,1-3.23.24,10.37,10.37,0,0,1,3.15-.75A10.05,10.05,0,0,1,392.82,128.68Z" style="fill:#fafafa"></path><path d="M396.21,139a13.27,13.27,0,0,1-2.79,1.7,14,14,0,0,1-2.9,1.46,8.4,8.4,0,0,1,2.65-1.92A8.68,8.68,0,0,1,396.21,139Z" style="fill:#fafafa"></path><path d="M399.65,151.83a10.78,10.78,0,0,1,1.44-3A11.38,11.38,0,0,1,403,146a10.78,10.78,0,0,1-1.44,3A11.38,11.38,0,0,1,399.65,151.83Z" style="fill:#fafafa"></path><path d="M414.38,155.18a12.41,12.41,0,0,1-2.16-6.29,16.46,16.46,0,0,1,1.14,3.12A16.6,16.6,0,0,1,414.38,155.18Z" style="fill:#fafafa"></path><path d="M423.9,152.24a8.43,8.43,0,0,1-1-2.78,8.55,8.55,0,0,1-.51-2.91,17.25,17.25,0,0,1,1.53,5.69Z" style="fill:#fafafa"></path><path d="M401.75,112.58a6.6,6.6,0,0,1-.92-2.42,6.64,6.64,0,0,1-.42-2.56,6.51,6.51,0,0,1,.92,2.42A6.62,6.62,0,0,1,401.75,112.58Z" style="fill:#fafafa"></path><path d="M413.39,109.12a6.2,6.2,0,0,1-.91-2.37,6.2,6.2,0,0,1-.41-2.5,6.2,6.2,0,0,1,.91,2.37A6.2,6.2,0,0,1,413.39,109.12Z" style="fill:#fafafa"></path><polygon points="119.9 50.25 71.54 60.96 85.51 124.03 134.14 114.53 119.9 50.25" style="fill:#ebebeb"></polygon><polygon points="116.92 53.26 74.61 62.64 87.28 119.83 129.91 111.89 116.92 53.26" style="fill:#fafafa"></polygon><polygon points="112.11 65.23 83.79 70.38 92.65 110.36 120.73 104.14 112.11 65.23" style="fill:#e0e0e0"></polygon><polygon points="92.65 110.36 116.18 83.6 83.79 70.38 92.65 110.36" style="fill:#f5f5f5"></polygon><rect x="55.88" y="371.09" width="51.6" height="69.21" transform="translate(-152.95 64.8) rotate(-23.16)" style="fill:#ebebeb"></rect><rect x="58.57" y="373.81" width="46.23" height="63.77" transform="translate(-152.95 64.8) rotate(-23.16)" style="fill:#fafafa"></rect><rect x="73.59" y="395.57" width="17.65" height="20.17" transform="translate(-152.87 65.09) rotate(-23.16)" style="fill:#ebebeb"></rect><rect x="301.67" y="244.46" width="38.22" height="51.26" transform="translate(244.99 -142.35) rotate(39.49)" style="fill:#ebebeb"></rect><rect x="297.16" y="252.97" width="47.23" height="34.24" transform="translate(-91.66 345.88) rotate(-50.51)" style="fill:#fafafa"></rect><rect x="314.52" y="263.09" width="13.07" height="14.94" transform="translate(245.35 -142.41) rotate(39.49)" style="fill:#ebebeb"></rect><polygon points="343.96 397.83 385.78 424.44 449.41 376.85 447.51 375.29 421.25 393.82 383.58 368.17 343.96 397.83" style="fill:#ebebeb"></polygon><path d="M386,395.26a3.21,3.21,0,0,1,.87,4.53,3.46,3.46,0,0,1-4.76.16,3.21,3.21,0,0,1-.88-4.53A3.49,3.49,0,0,1,386,395.26Z" style="fill:#fff"></path></g><g id="character-3--inject-1"><path d="M304.58,382.64,302.93,406c-2.05,3.07-27,35.06-27,35.06l.06,0c-.47.17-1,.34-1.53.52a7.72,7.72,0,0,1-2.57.35,11.76,11.76,0,0,1-3.22-.44c-.93-.37-1.82.59-1.33,1.35s3,1.84,6.23,1.67-.53,3.22-1.88,4.49-5.31,5.38-5.24,6.1c.09,1.06,1.24,1.15,2.55-.14s5.51-4.91,6.15-4.17-6.3,7.09-6.3,7.09-1.7,1.12-1,2c1.27,1.59,8.13-5.71,8.76-6.42.45-.49,1.16.29.66.79s-7,6.18-5.77,7.81c1,1.25,5.7-6,7.71-6.37s-4.14,5.09-3.15,6.25c.37.43.7.7,3.77-3a114,114,0,0,0,6.77-10c3.13-3.12,35.1-35.07,35.59-41.26l2.94-26Z" style="fill:#ffbe9d"></path><path d="M318.52,410.64s.2.06.55,0a2.56,2.56,0,0,0,1.9-2.93,2.61,2.61,0,0,0-1.77-2.08,2.07,2.07,0,0,0-1.49.09,1.87,1.87,0,0,0-.95,1,1.5,1.5,0,0,0,1,1.94,1.21,1.21,0,0,0,1.34-.67c.16-.35.07-.56.05-.55s0,.2-.2.47a1.05,1.05,0,0,1-1.12.45,1.16,1.16,0,0,1-.7-1.5,1.44,1.44,0,0,1,.74-.78,1.65,1.65,0,0,1,1.18,0,2.2,2.2,0,0,1,1.5,1.73,2.28,2.28,0,0,1-.45,1.87A3.33,3.33,0,0,1,318.52,410.64Z" style="fill:#eb996e"></path><path d="M276.29,351.7c-6.21,0-40.59,29.35-43.94,32.22a111.38,111.38,0,0,0-10.54,5.95c-3.91,2.77-3.67,3.12-3.27,3.52,1.08,1.08,7.06-4.6,6.48-2.64s-8.12,6.1-7,7.18c1.52,1.4,7.67-4.66,8.23-5.14s1.27.32.74.72c-.76.58-8.57,6.84-7.09,8.23.82.77,2.07-.83,2.07-.83s6.88-6.4,7.56-5.72-3.22,4.59-4.64,5.81-1.39,2.35-.34,2.53c.71.12,5.13-3.51,6.5-4.75s5.06-4.7,4.62-1.51.44,5.8,1.17,6.34,1.75-.27,1.45-1.22a11.91,11.91,0,0,1-.18-3.24,7.72,7.72,0,0,1,.55-2.55c.22-.54.44-1,.64-1.47l0,.05s33.86-22.33,37.08-24.14l23.42.21,2.58-20.43Z" style="fill:#ffbe9d"></path><path d="M456.47,219.33l-2.9,8.39-15.75-5.33,4.11-12.32,1,.27c4.43,1.23,22.43,6.56,25,8.42C470.87,220.84,456.47,219.33,456.47,219.33Z" style="fill:#3f3d56"></path><g style="opacity:0.4"><path d="M447.6,212.13a5.81,5.81,0,0,1-3.15,2.68,5.66,5.66,0,0,1-4.07-.1l1.49-4.41Z"></path></g><path d="M463.58,219.83s5.15.23,4.83-.74-18.32-7-26.48-9l-.1.36,21,6.9S462.68,219.48,463.58,219.83Z" style="opacity:0.4"></path><path d="M441.58,210.36a1.87,1.87,0,0,1,.28.06l.8.22,2.9.84c2.45.73,5.82,1.78,9.51,3s7,2.45,9.41,3.35l2.82,1.08.76.31a1.28,1.28,0,0,1,.26.12l-.27-.08-.78-.28-2.84-1c-2.41-.87-5.73-2-9.42-3.29s-7.05-2.31-9.49-3.07l-2.89-.91-.78-.25Z" style="fill:#263238"></path><path d="M463,217.09a6.86,6.86,0,0,0,.08,1.54,6.94,6.94,0,0,0,.6,1.43,2.7,2.7,0,0,1-.68-3Z" style="fill:#263238"></path><path d="M457.51,217.88c.05,0,.18.33.29.77a1.81,1.81,0,0,1,.1.82c-.06,0-.19-.33-.29-.77S457.45,217.89,457.51,217.88Z" style="fill:#263238"></path><path d="M456,218.12c.05,0,.25.22.44.56s.3.63.25.66-.24-.23-.43-.56S456,218.15,456,218.12Z" style="fill:#263238"></path><path d="M454.7,219.34c0-.06.4,0,.85.17a2,2,0,0,1,.8.36c0,.06-.4,0-.86-.17A2,2,0,0,1,454.7,219.34Z" style="fill:#263238"></path><path d="M454.07,220.29a1.69,1.69,0,0,1,1,0,1.71,1.71,0,0,1,.91.45,5.48,5.48,0,0,1-1-.25A5.41,5.41,0,0,1,454.07,220.29Z" style="fill:#263238"></path><path d="M457.58,219.43a3.11,3.11,0,0,1,1,.35,6.27,6.27,0,0,1,1,.6,3.63,3.63,0,0,1,.53.46.59.59,0,0,1,.14.4.44.44,0,0,1-.29.36,2,2,0,0,1-2.11-1.32,1.86,1.86,0,0,1-.1-.79.7.7,0,0,1,.06-.28,3.22,3.22,0,0,0,.17,1,2,2,0,0,0,.68.85,1.64,1.64,0,0,0,1.23.33c.2-.07.2-.28.06-.45a2.9,2.9,0,0,0-.49-.43,6.1,6.1,0,0,0-1-.62C458,219.59,457.57,219.46,457.58,219.43Z" style="fill:#263238"></path><path d="M457.86,219.47a1,1,0,0,1-.12.74,1.73,1.73,0,0,1-.53.65,1.07,1.07,0,0,1-1,.23.43.43,0,0,1-.15-.57,1.2,1.2,0,0,1,.33-.4,3.06,3.06,0,0,1,.68-.45,1.57,1.57,0,0,1,.72-.21s-.27.11-.65.34a3,3,0,0,0-.63.46c-.21.17-.44.52-.2.65a.94.94,0,0,0,.81-.2,1.76,1.76,0,0,0,.51-.56A4.1,4.1,0,0,0,457.86,219.47Z" style="fill:#263238"></path><path d="M440.45,214.78a11.41,11.41,0,0,0,1.18.35,5.36,5.36,0,0,0,2.89-.19,5.28,5.28,0,0,0,2.34-1.71c.47-.59.65-1,.68-1a.92.92,0,0,1-.11.32,4.35,4.35,0,0,1-.45.79,5.06,5.06,0,0,1-5.39,2,5.68,5.68,0,0,1-.86-.31C440.54,214.86,440.44,214.79,440.45,214.78Z" style="fill:#263238"></path><path d="M439.87,221.89a30.63,30.63,0,0,1,1-3.29,32,32,0,0,1,1.14-3.22,26.8,26.8,0,0,1-1,3.29A30.5,30.5,0,0,1,439.87,221.89Z" style="fill:#263238"></path><path d="M449.06,214.33a9.74,9.74,0,0,1,2.38.55,9.6,9.6,0,0,1,2.24,1c0,.06-1-.35-2.31-.77S449.05,214.39,449.06,214.33Z" style="fill:#263238"></path><path d="M446,213.3c0-.06.16-.19.34-.39s.32-.39.37-.37,0,.27-.22.5S446,213.35,446,213.3Z" style="fill:#263238"></path><path d="M444.32,214.35s.13-.18.35-.29.42-.16.44-.11-.13.18-.35.29S444.34,214.4,444.32,214.35Z" style="fill:#263238"></path><path d="M442.43,214.45s.24,0,.5,0,.46-.07.49,0-.17.22-.49.22S442.4,214.49,442.43,214.45Z" style="fill:#263238"></path><path d="M441.14,214.36c0-.05.11-.1.26-.11s.27,0,.27.09-.11.11-.26.11S441.14,214.42,441.14,214.36Z" style="fill:#263238"></path><path d="M394.06,202.37l2.13,8.62-16.12,4.09-3.25-12.57,1-.32c4.38-1.38,22.39-6.69,25.59-6.54C407,195.82,394.06,202.37,394.06,202.37Z" style="fill:#3f3d56"></path><g style="opacity:0.4"><path d="M382.7,201.15a5.77,5.77,0,0,1-1.19,4,5.62,5.62,0,0,1-3.47,2.13l-1.14-4.51Z"></path></g><path d="M400.31,198.93s4.44-2.6,3.64-3.24-19.19,4-27.13,6.82l.12.35,21.41-5.64S399.36,199.13,400.31,198.93Z" style="opacity:0.4"></path><path d="M376.69,202.93l.27-.1.78-.25,2.9-.87c2.45-.72,5.85-1.66,9.63-2.63s7.21-1.76,9.71-2.3l3-.63.8-.15a1.58,1.58,0,0,1,.29,0l-.28.08-.8.19-2.94.69c-2.49.58-5.92,1.39-9.69,2.36s-7.18,1.89-9.64,2.57l-2.91.81-.8.21A1,1,0,0,1,376.69,202.93Z" style="fill:#263238"></path><path d="M398.29,197a6.49,6.49,0,0,0,.9,1.26,6.34,6.34,0,0,0,1.28.86,2.68,2.68,0,0,1-2.18-2.12Z" style="fill:#263238"></path><path d="M394.14,200.59s.34.18.67.49.56.59.53.63-.34-.17-.67-.48S394.11,200.63,394.14,200.59Z" style="fill:#263238"></path><path d="M393,201.61c0-.05.32.06.66.24s.6.36.57.41-.32-.06-.66-.23S393,201.66,393,201.61Z" style="fill:#263238"></path><path d="M392.58,203.34a2.09,2.09,0,0,1,.81-.32c.46-.12.85-.18.87-.12a2.18,2.18,0,0,1-.82.32C393,203.34,392.59,203.4,392.58,203.34Z" style="fill:#263238"></path><path d="M392.57,204.49c0-.05.33-.34.87-.51a1.65,1.65,0,0,1,1-.12,6,6,0,0,1-.94.31A5.23,5.23,0,0,1,392.57,204.49Z" style="fill:#263238"></path><path d="M395.05,201.86a3.2,3.2,0,0,1,1-.26,7,7,0,0,1,1.16,0,3.1,3.1,0,0,1,.7.1.57.57,0,0,1,.34.26.41.41,0,0,1-.06.45,2,2,0,0,1-2.49,0,2.1,2.1,0,0,1-.51-.6c-.09-.17-.11-.27-.1-.27a3.48,3.48,0,0,0,.7.76,2,2,0,0,0,1,.35,1.68,1.68,0,0,0,1.21-.4c.14-.16,0-.34-.19-.4a2.76,2.76,0,0,0-.64-.1,7.31,7.31,0,0,0-1.14,0C395.45,201.79,395.06,201.89,395.05,201.86Z" style="fill:#263238"></path><path d="M395.3,201.74s.24.21.31.69a1.88,1.88,0,0,1-.09.82c-.13.28-.28.66-.73.75a.42.42,0,0,1-.44-.4,1,1,0,0,1,.06-.5,2.61,2.61,0,0,1,.33-.75c.24-.4.46-.59.48-.57s-.16.23-.36.63a4.11,4.11,0,0,0-.28.74c-.08.25-.08.67.19.65s.47-.37.57-.61a1.61,1.61,0,0,0,.12-.75A2.93,2.93,0,0,0,395.3,201.74Z" style="fill:#263238"></path><path d="M378.14,207.26s.47-.07,1.18-.35a5.21,5.21,0,0,0,3.36-4.43c.07-.76,0-1.23,0-1.23a.9.9,0,0,1,.08.32,4.71,4.71,0,0,1,.05.92,5,5,0,0,1-3.46,4.56,4.36,4.36,0,0,1-.89.2A1.26,1.26,0,0,1,378.14,207.26Z" style="fill:#263238"></path><path d="M381.52,213.54a26.26,26.26,0,0,1-1-3.27,28.1,28.1,0,0,1-.79-3.33,31,31,0,0,1,1,3.27A30.71,30.71,0,0,1,381.52,213.54Z" style="fill:#263238"></path><path d="M385.13,202.21a9.35,9.35,0,0,1,2.29-.84,9.93,9.93,0,0,1,2.4-.41c0,.06-1.06.26-2.35.61S385.15,202.26,385.13,202.21Z" style="fill:#263238"></path><path d="M382,203c-.05,0,0-.24.07-.51s.06-.5.11-.51.15.24.09.55S382,203,382,203Z" style="fill:#263238"></path><path d="M381.16,204.8c-.05,0,0-.22.13-.44s.27-.36.31-.33,0,.22-.13.44S381.2,204.83,381.16,204.8Z" style="fill:#263238"></path><path d="M379.63,205.91c0-.06.21-.11.42-.26s.36-.31.41-.28,0,.28-.3.45S379.62,206,379.63,205.91Z" style="fill:#263238"></path><path d="M378.49,206.54s0-.16.16-.24.25-.12.28-.08,0,.16-.16.24S378.53,206.58,378.49,206.54Z" style="fill:#263238"></path><path d="M328.61,322.14l27.68,23.77s59.79-24.67,69.86-30.38c8.13-4.61,35.8-92.23,35.8-92.23l-26.08-6.79-22.56,74.9a6.91,6.91,0,0,1-4.31,4.2c-3.66,1.21-9.8,3-16.6,4.9l2.07-1.54s17.06-8.94,15.84-21.87c-.94-9.87-8.83-72.08-8.83-72.08l-24.6,4.5,7.95,64.29s-39.19,27.27-41.91,28.8-14.31,19.53-14.31,19.53" style="fill:#263238"></path><path d="M410.65,294.79a4.24,4.24,0,0,1-.58.4l-1.72,1.08h0c-2.51.56-6.65,1.57-11.77,3.16s-11.23,3.68-17.84,5.83a130.35,130.35,0,0,1-12.66,3.54c-4,.79-7.63.95-10.61,1.52a25.22,25.22,0,0,0-6.82,2.19c-.76.38-1.33.7-1.72.93a4.48,4.48,0,0,1-.61.32,2.83,2.83,0,0,1,.55-.41,18.68,18.68,0,0,1,1.69-1,24.09,24.09,0,0,1,6.84-2.37c3-.63,6.65-.82,10.58-1.63s8.17-2.15,12.6-3.57c6.6-2.14,12.72-4.25,17.87-5.75a115.66,115.66,0,0,1,11.86-2.94h0l1.77-1A3.21,3.21,0,0,1,410.65,294.79Z" style="fill:#455a64"></path><path d="M365.29,343.44a11.92,11.92,0,0,0,1.51-2.5,8.21,8.21,0,0,0,.56-3.07,6.91,6.91,0,0,0-3.77-6.18,7.84,7.84,0,0,0-3-.91,12.82,12.82,0,0,0-2.91.19,2,2,0,0,1,.74-.31,6.43,6.43,0,0,1,2.19-.25,8,8,0,0,1,3.18.85,7.13,7.13,0,0,1,4,6.61,7.93,7.93,0,0,1-.7,3.21,6.74,6.74,0,0,1-1.22,1.84A2.23,2.23,0,0,1,365.29,343.44Z" style="fill:#455a64"></path><path d="M418.69,298.87a18.55,18.55,0,0,1-7.19-3.5,23.09,23.09,0,0,1,3.63,1.67A21.9,21.9,0,0,1,418.69,298.87Z" style="fill:#455a64"></path><path d="M416.93,302.83a14.58,14.58,0,0,1-3.64-3.17,14.33,14.33,0,0,1-2.81-3.91c.12-.09,1.42,1.62,3.2,3.56S417,302.71,416.93,302.83Z" style="fill:#455a64"></path><path d="M459.2,230.57c0,.14-5.74-1.55-12.71-3.77s-12.6-4.13-12.56-4.26,5.73,1.55,12.71,3.77S459.24,230.43,459.2,230.57Z" style="fill:#455a64"></path><path d="M402.51,213.23a4,4,0,0,1-1,.28c-.62.15-1.53.34-2.65.56-2.25.43-5.38.94-8.84,1.4s-6.6.83-8.88,1.08l-2.69.27a4.24,4.24,0,0,1-1,0,3.39,3.39,0,0,1,1-.24c.63-.11,1.54-.26,2.68-.43,2.26-.34,5.39-.76,8.85-1.23s6.59-.9,8.85-1.24A28.81,28.81,0,0,1,402.51,213.23Z" style="fill:#455a64"></path><path d="M329.48,372.45s-4.7,26.95-5,28c0,0-22.2-.85-22.06-1.56s1.45-20.32,1.45-20.32Z" style="fill:#455a64"></path><path d="M307.53,344.34l13.75-12.42,15.61-24.24,30.44,36-25.87,13-12,15.82c-5.35,6.31-15.68,15.73-15.68,15.73l-19.19-14.31a19,19,0,0,1-2.1-2.87c-1.88-2-3.89-6.95-4.38-14.37" style="fill:#455a64"></path><path d="M288.48,348.72a8.46,8.46,0,0,1,1.52.37,24.65,24.65,0,0,1,4,1.5,10.63,10.63,0,0,1,4.71,4.25,7,7,0,0,1,.93,3.69c-.06,1.35-.51,2.64-.58,4a3.67,3.67,0,0,0,.33,1.84,4.23,4.23,0,0,0,1.24,1.36,13.47,13.47,0,0,1,2.93,2.37,6.28,6.28,0,0,1,.95,6.17,6.19,6.19,0,0,1-2.86,3.17,4.72,4.72,0,0,1-1.08.43,1.69,1.69,0,0,1-.41.07,15,15,0,0,0,1.39-.67,6.28,6.28,0,0,0,2.62-3.13,6,6,0,0,0-1-5.74,13.47,13.47,0,0,0-2.87-2.26,4.82,4.82,0,0,1-1.39-1.54,4.11,4.11,0,0,1-.39-2.1c.08-1.42.53-2.7.59-3.95a6.48,6.48,0,0,0-.84-3.44,10.44,10.44,0,0,0-4.46-4.15,29.55,29.55,0,0,0-3.89-1.64A8.61,8.61,0,0,1,288.48,348.72Z" style="fill:#f5f5f5"></path><path d="M354.19,350.1a4.45,4.45,0,0,0,.15-1.61,5.74,5.74,0,0,0-2.35-3.6c-1.45-1.19-3.71-1.79-5.83-3.29a6.75,6.75,0,0,1-2.42-3.22c-.51-1.31-.78-2.72-1.3-4a6.51,6.51,0,0,0-2.53-3.14,15.78,15.78,0,0,0-3.52-1.64c-2.37-.79-4.62-1.55-6.06-2.92a5.6,5.6,0,0,1-1.9-4.09,3.85,3.85,0,0,1,.25-1.23,1.41,1.41,0,0,1,.21-.37,5.6,5.6,0,0,0-.25,1.6,5.5,5.5,0,0,0,1.93,3.82c1.4,1.26,3.58,2,6,2.74a15.38,15.38,0,0,1,3.64,1.67,6.92,6.92,0,0,1,2.73,3.37c.55,1.38.81,2.79,1.29,4.05a6.38,6.38,0,0,0,2.24,3c2,1.45,4.26,2.1,5.77,3.38a5.84,5.84,0,0,1,2.32,3.87,3.15,3.15,0,0,1-.15,1.24A1.31,1.31,0,0,1,354.19,350.1Z" style="fill:#ebebeb"></path><path d="M341.44,356.23a1.41,1.41,0,0,1-.35-.06,6.68,6.68,0,0,1-.95-.31,10.58,10.58,0,0,1-3.13-1.94,11.31,11.31,0,0,1-3.11-4.5c-.82-1.95-.6-4.33-1.46-6.43a4.89,4.89,0,0,0-2.18-2.35,11.8,11.8,0,0,0-2.94-1.06,14.53,14.53,0,0,1-5.15-1.8,4.69,4.69,0,0,1-2-3.07,3.09,3.09,0,0,1,0-1c.07-.22.11-.33.13-.33a4.91,4.91,0,0,0,0,1.31,4.63,4.63,0,0,0,2,2.8,14.77,14.77,0,0,0,5.05,1.63,12.11,12.11,0,0,1,3.08,1.09,5.36,5.36,0,0,1,2.41,2.58,13.58,13.58,0,0,1,.77,3.41,13.25,13.25,0,0,0,.66,3.07,11.35,11.35,0,0,0,2.91,4.39A13.86,13.86,0,0,0,341.44,356.23Z" style="fill:#ebebeb"></path><path d="M322.69,358.23a3.4,3.4,0,0,0,1.71,1.15,29.17,29.17,0,0,1,5,1.47,7.85,7.85,0,0,1,3.89,3.57,3.47,3.47,0,0,1,.47,2.15,12.9,12.9,0,0,0-.79-2,8.18,8.18,0,0,0-3.79-3.26,17.22,17.22,0,0,0-2.67-.95,22.18,22.18,0,0,1-2.28-.66,3,3,0,0,1-1.34-.94C322.7,358.46,322.66,358.24,322.69,358.23Z" style="fill:#ebebeb"></path><path d="M328.24,379.39a7,7,0,0,0-2.39-2.55,12,12,0,0,0-3.53-1.44c-1.41-.37-3-.59-4.67-1.08a9.14,9.14,0,0,1-4.23-2.38,8.44,8.44,0,0,1-2-3.44,7.59,7.59,0,0,1-.28-2.65,2.5,2.5,0,0,1,.18-1,11.71,11.71,0,0,0,.46,3.5,8.4,8.4,0,0,0,2,3.22,9,9,0,0,0,4,2.21c1.61.47,3.21.72,4.65,1.11a11.73,11.73,0,0,1,3.61,1.6,6,6,0,0,1,1.84,1.94A2.23,2.23,0,0,1,328.24,379.39Z" style="fill:#ebebeb"></path><path d="M327,389.15a4.27,4.27,0,0,0-1.06-.08,6.22,6.22,0,0,0-2.61,1.22,5.27,5.27,0,0,1-1.93.86,3.76,3.76,0,0,1-2.42-.47c-1.56-.82-2.63-2.48-3.61-4.07a11.36,11.36,0,0,0-1.7-2.13,4.68,4.68,0,0,0-2.16-1.14,30.19,30.19,0,0,0-4.35-.29,6.1,6.1,0,0,1-2.88-.86,3.46,3.46,0,0,1-.63-.54c-.11-.15-.17-.23-.15-.24a8.78,8.78,0,0,0,.89.6,6.32,6.32,0,0,0,2.8.67,26.17,26.17,0,0,1,4.43.19,5.13,5.13,0,0,1,2.39,1.23,10.82,10.82,0,0,1,1.79,2.23,25.88,25.88,0,0,0,1.55,2.28,6.58,6.58,0,0,0,1.87,1.65,3.21,3.21,0,0,0,2.11.46,5.12,5.12,0,0,0,1.81-.74,5.81,5.81,0,0,1,2.79-1.11,2.12,2.12,0,0,1,.82.13A.81.81,0,0,1,327,389.15Z" style="fill:#ebebeb"></path><path d="M342.44,346.29s.11-.2.46-.34a1.87,1.87,0,0,1,1.56.12h0l0,0a1.92,1.92,0,0,1,.6,1.45,1.85,1.85,0,0,1-.89,1.61,2,2,0,0,1-2.16-.09,1.77,1.77,0,0,1-.73-1.61,1.73,1.73,0,0,1,.44-1.08c.19-.2.34-.25.36-.23a2.64,2.64,0,0,0-.43,1.32,1.43,1.43,0,0,0,.63,1.2,1.61,1.61,0,0,0,1.63,0,1.42,1.42,0,0,0,.66-1.17,1.49,1.49,0,0,0-.4-1.14l0,0a1.79,1.79,0,0,0-1.29-.24C342.64,346.23,342.46,346.33,342.44,346.29Z" style="fill:#ebebeb"></path><path d="M325.8,345.5s.11-.2.47-.34a1.87,1.87,0,0,1,1.56.12h0l0,0a1.95,1.95,0,0,1-.29,3.06,2,2,0,0,1-2.16-.1,1.81,1.81,0,0,1-.73-1.6,1.78,1.78,0,0,1,.45-1.08c.19-.21.34-.26.35-.23a2.54,2.54,0,0,0-.43,1.32,1.45,1.45,0,0,0,.63,1.19,1.61,1.61,0,0,0,1.63.05,1.42,1.42,0,0,0,.67-1.18,1.56,1.56,0,0,0-.4-1.13l0,0a1.76,1.76,0,0,0-1.28-.24C326,345.45,325.83,345.54,325.8,345.5Z" style="fill:#ebebeb"></path><path d="M335.15,320.75s.11-.2.46-.34a1.87,1.87,0,0,1,1.56.12h0l0,0a2,2,0,0,1-.29,3.06,2,2,0,0,1-2.16-.1,1.81,1.81,0,0,1-.73-1.6,1.84,1.84,0,0,1,.44-1.08c.2-.21.34-.26.36-.23a2.54,2.54,0,0,0-.43,1.32,1.45,1.45,0,0,0,.63,1.19,1.61,1.61,0,0,0,1.63.05,1.41,1.41,0,0,0,.66-1.18,1.47,1.47,0,0,0-.4-1.13l0,0a1.77,1.77,0,0,0-1.28-.24C335.35,320.7,335.17,320.79,335.15,320.75Z" style="fill:#ebebeb"></path><path d="M320.76,366.45s.12-.2.47-.34a1.87,1.87,0,0,1,1.56.12h0l0,0a1.92,1.92,0,0,1,.6,1.45,1.89,1.89,0,0,1-.89,1.61,2,2,0,0,1-2.16-.09,1.77,1.77,0,0,1-.73-1.61,1.73,1.73,0,0,1,.44-1.08c.19-.2.34-.25.36-.23a2.71,2.71,0,0,0-.44,1.32,1.44,1.44,0,0,0,.64,1.2,1.59,1.59,0,0,0,1.62,0,1.4,1.4,0,0,0,.67-1.17,1.57,1.57,0,0,0-.4-1.14l0,0a1.79,1.79,0,0,0-1.29-.24C321,366.39,320.79,366.49,320.76,366.45Z" style="fill:#ebebeb"></path><path d="M310.86,376.49s.11-.2.46-.34a1.9,1.9,0,0,1,1.56.11h0l0,0a1.95,1.95,0,0,1-.29,3.06,2,2,0,0,1-2.16-.09,1.82,1.82,0,0,1-.73-1.61,1.84,1.84,0,0,1,.44-1.08c.2-.2.34-.25.36-.23a2.64,2.64,0,0,0-.43,1.32,1.45,1.45,0,0,0,.63,1.2,1.61,1.61,0,0,0,1.63,0,1.39,1.39,0,0,0,.66-1.17,1.52,1.52,0,0,0-.39-1.14l0,0a1.83,1.83,0,0,0-1.28-.25C311.06,376.43,310.88,376.53,310.86,376.49Z" style="fill:#ebebeb"></path><path d="M319.08,393.88s.12-.2.47-.34a1.87,1.87,0,0,1,1.56.12h0l0,0a2,2,0,0,1-.28,3.06,2,2,0,0,1-2.16-.09A1.77,1.77,0,0,1,318,395a1.73,1.73,0,0,1,.44-1.08c.19-.2.34-.25.36-.23a2.71,2.71,0,0,0-.44,1.32,1.44,1.44,0,0,0,.64,1.2,1.59,1.59,0,0,0,1.62,0,1.4,1.4,0,0,0,.67-1.17,1.57,1.57,0,0,0-.4-1.14l0,0a1.76,1.76,0,0,0-1.28-.24C319.28,393.82,319.11,393.92,319.08,393.88Z" style="fill:#ebebeb"></path><path d="M294.26,375.41l-10-13.33a17.75,17.75,0,0,0-16.34-2.31l-2.43.87A5.84,5.84,0,0,0,262,365l-.82,4.56a11.27,11.27,0,0,0,4.28,11c4.32,3.27,9.15,7,12.87,8.85,6.11,3,13-2.53,13-2.53a35.8,35.8,0,0,0,17.41-.69" style="fill:#ffbe9d"></path><path d="M270.54,382.32a.91.91,0,0,0,1.28-.2.92.92,0,1,0-1.28.2Z" style="fill:#263238"></path><path d="M269.2,382.44c.17,0,.1-.91.65-1.75s1.36-1.14,1.32-1.3-.27-.11-.64,0a2.45,2.45,0,0,0-1.19,1,2.42,2.42,0,0,0-.38,1.48C269,382.24,269.12,382.46,269.2,382.44Z" style="fill:#263238"></path><path d="M276.85,373.72a.92.92,0,0,0,1.09-1.49.92.92,0,0,0-1.09,1.49Z" style="fill:#263238"></path><path d="M275.7,373.59c.17,0,.1-.92.65-1.75s1.36-1.15,1.32-1.31-.27-.11-.64,0a2.45,2.45,0,0,0-1.19,1,2.42,2.42,0,0,0-.38,1.48C275.49,373.39,275.62,373.6,275.7,373.59Z" style="fill:#263238"></path><path d="M291.42,386.94a18,18,0,0,0,1.78-9.89s3.91,3.87.16,10Z" style="fill:#eb996e"></path><path d="M280.33,381.42a6.78,6.78,0,0,0-1.12,1.19c-.16.19-.34.37-.52.3s-.37-.31-.56-.58c-.4-.56-.82-1.15-1.25-1.77-.9-1.24-1.73-2.35-2.35-3.15a6.52,6.52,0,0,0-1.07-1.23,6.59,6.59,0,0,0,.84,1.4c.56.83,1.35,2,2.25,3.22l1.28,1.74a1.68,1.68,0,0,0,.78.7.63.63,0,0,0,.53-.13,1.67,1.67,0,0,0,.29-.33A6.27,6.27,0,0,0,280.33,381.42Z" style="fill:#263238"></path><path d="M266.91,357.29c4.63-2.33,8.43-3.16,10.72-5.5s4-5.18,6-7.76,4.46-5,7.58-6,7-.16,8.73,2.61A13.58,13.58,0,0,1,311.23,335c4.39.24,8.62,3.35,9.66,7.62.5,2,.29,4.23.93,6.24.41,1.29,1.15,2.46,1.58,3.74a8.53,8.53,0,0,1-3.63,9.76c-3.68,2.17-8.85,1.43-11.84,4.47-1.6,1.63-2.19,4-3.67,5.76-2.29,2.72-6.36,3.35-9.81,2.47s-6.42-3-9.31-5.06" style="fill:#3f3d56"></path><path d="M259.14,374.37a11.65,11.65,0,0,0,10.66,9.21,25.13,25.13,0,0,0-3.67-6.78,8.79,8.79,0,0,0-6.68-3.41" style="fill:#3f3d56"></path><path d="M259.11,374.29c3.64,2.74,9,2.49,12.86.07A4.12,4.12,0,0,0,273.4,373a1.72,1.72,0,0,0,0-1.86,1.11,1.11,0,0,0-1.69-.07,29.2,29.2,0,0,0,5.74-2.09,3.54,3.54,0,0,0,2.06-1.87c.29-.91-.57-2.12-1.46-1.76,2-.2,5.81,1.37,7.68.67.59-.22-.62-2.56-.44-3.16s-.4-1.45-1-2c-2.08-2-4.29-4-7.07-4.74a15.72,15.72,0,0,0-12.81,2.63c-2.24,1.81-4,4.84-5.27,7.42s-.91,6,.26,8.65" style="fill:#3f3d56"></path><path d="M284,364.13a2.43,2.43,0,0,1,1.17-2.43,3,3,0,0,1,2.75-.05,3.86,3.86,0,0,1,1.85,2.1,2.32,2.32,0,0,1-.37,2.57" style="fill:#ffbe9d"></path><path d="M299.64,346.78c-.05,0,.28-.74.53-2.13a11.05,11.05,0,0,0-.4-5.83,8.1,8.1,0,0,0-2.23-3.32,7.94,7.94,0,0,0-4.11-1.95,6.47,6.47,0,0,0-4.78,1.21,10.94,10.94,0,0,0-3.39,4.28,50.07,50.07,0,0,0-2,5.25,17.17,17.17,0,0,1-2.34,4.76,24.8,24.8,0,0,1-6.88,5.69,59.83,59.83,0,0,1-5.24,2.94c-.63.32-1.13.55-1.47.7a2,2,0,0,1-.54.2,3,3,0,0,1,.49-.29l1.43-.79c1.24-.68,3-1.69,5.14-3.07a25.22,25.22,0,0,0,6.69-5.66,17.14,17.14,0,0,0,2.24-4.65,48.11,48.11,0,0,1,2-5.31,11.45,11.45,0,0,1,3.56-4.46,6.94,6.94,0,0,1,5.15-1.28,8.46,8.46,0,0,1,6.62,5.62,11,11,0,0,1,.25,6,11.91,11.91,0,0,1-.48,1.57A2.48,2.48,0,0,1,299.64,346.78Z" style="fill:#3f3d56"></path><path d="M288,365.37c-.07,0,.08-.32,0-.76a1.32,1.32,0,0,0-2.4-.77c-.29.33-.33.65-.41.64s-.17-.36.11-.85a1.63,1.63,0,0,1,3.06,1C288.33,365.18,288,365.41,288,365.37Z" style="fill:#eb996e"></path><path d="M283.43,378.75a1.42,1.42,0,0,0-1.14,1,2.11,2.11,0,0,0-.11,1.42,1.27,1.27,0,0,0,1.05.89,1.58,1.58,0,0,0,1.31-.82,2.11,2.11,0,0,0,.34-1.71,1.31,1.31,0,0,0-1.35-1" style="fill:#eb996e"></path><path d="M283.08,377.87a3.63,3.63,0,0,1-.2,4.62c-.14-.08.37-1,.41-2.3S282.94,377.93,283.08,377.87Z" style="fill:#263238"></path><path d="M284.58,334s-.39.26-.95.88a7.45,7.45,0,0,0-1.58,3.11,31.38,31.38,0,0,0-.61,5.24,12.71,12.71,0,0,1-2.13,6.21,17.66,17.66,0,0,1-4.65,4.64,29.18,29.18,0,0,1-4.67,2.61c-1.39.63-2.53,1.08-3.32,1.38a5.74,5.74,0,0,1-1.25.41,6.6,6.6,0,0,1,1.17-.6c.77-.36,1.89-.85,3.24-1.52a32.76,32.76,0,0,0,4.55-2.67,17.83,17.83,0,0,0,4.5-4.54,12.41,12.41,0,0,0,2.08-6,28.32,28.32,0,0,1,.74-5.29,7.21,7.21,0,0,1,1.78-3.15,3.8,3.8,0,0,1,.79-.6C284.47,334,284.57,334,284.58,334Z" style="fill:#3f3d56"></path><path d="M287.23,369.85a8.82,8.82,0,0,1,5.5,6.18c.43,1.89.28,4,1.44,5.56,1.35,1.82,4.13,2.28,5.17,4.29.72,1.37.38,3,.3,4.55-.13,2.24.6,4.86,2.7,5.65s4.22-.58,5.7-2.16,2.84-4.12,2.06-6.33c-.62-1.76-4.79-4.55-6.32-5.62-2.44-1.7,8.75-6.56,1.51-10.91-2.05-1.23-8.66,2.87-10.48,1.31a8.69,8.69,0,0,0-6.56-2.38" style="fill:#3f3d56"></path></g><g id="character-2--inject-1"><path d="M126.84,100.37l8.8-1.19L138,115.64l-12.85,1.88-.21-1c-.9-4.51-4.25-23-3.76-26.15C121.71,86.83,126.84,100.37,126.84,100.37Z" style="fill:#3f3d56"></path><g style="opacity:0.4"><path d="M124.41,111.53a5.76,5.76,0,0,1,3.81,1.6,5.6,5.6,0,0,1,1.74,3.68l-4.6.66Z"></path></g><path d="M124.09,93.79s-2.11-4.7-2.83-4,2,19.51,3.87,27.7l.36-.08-3.31-21.89S124.19,94.75,124.09,93.79Z" style="opacity:0.4"></path><path d="M125.54,117.7a1.49,1.49,0,0,1-.07-.28c0-.24-.1-.51-.16-.81-.16-.8-.34-1.8-.56-3-.45-2.51-1-6-1.58-9.85s-1-7.36-1.26-9.9c-.12-1.19-.22-2.2-.3-3,0-.31,0-.58-.07-.82s0-.29,0-.29a1,1,0,0,1,0,.28c0,.25.07.52.11.82.1.81.22,1.82.37,3,.31,2.53.75,6,1.3,9.89s1.11,7.34,1.53,9.86c.19,1.17.36,2.17.49,3,.05.3.09.57.13.81A1.06,1.06,0,0,1,125.54,117.7Z" style="fill:#263238"></path><path d="M121.92,95.59a6.87,6.87,0,0,0,1.35-.76,6.77,6.77,0,0,0,1-1.19A2.23,2.23,0,0,1,123.4,95,2.27,2.27,0,0,1,121.92,95.59Z" style="fill:#263238"></path><path d="M125.08,100.09s.21-.31.56-.61.65-.49.69-.45-.22.31-.56.61S125.12,100.14,125.08,100.09Z" style="fill:#263238"></path><path d="M126,101.33s.1-.32.31-.64.42-.55.47-.52-.09.31-.3.63S126,101.36,126,101.33Z" style="fill:#263238"></path><path d="M127.65,102a1.91,1.91,0,0,1-.23-.85,2,2,0,0,1,0-.87c.06,0,.16.37.24.84A2.11,2.11,0,0,1,127.65,102Z" style="fill:#263238"></path><path d="M128.79,102.08a1.69,1.69,0,0,1-.42-.92,1.76,1.76,0,0,1,0-1,5.16,5.16,0,0,1,.21,1A5.9,5.9,0,0,1,128.79,102.08Z" style="fill:#263238"></path><path d="M126.44,99.33a2.92,2.92,0,0,1-.15-1.06,6.25,6.25,0,0,1,.09-1.16,3.08,3.08,0,0,1,.17-.68.58.58,0,0,1,.29-.31.41.41,0,0,1,.45.1,2,2,0,0,1-.23,2.48,1.9,1.9,0,0,1-.65.44.62.62,0,0,1-.28.07,2.94,2.94,0,0,0,.83-.61,1.87,1.87,0,0,0,.46-1,1.61,1.61,0,0,0-.27-1.24c-.15-.15-.33-.06-.42.14a3.45,3.45,0,0,0-.17.63,8.92,8.92,0,0,0-.13,1.13C126.41,98.92,126.47,99.33,126.44,99.33Z" style="fill:#263238"></path><path d="M126.34,99.06a1.14,1.14,0,0,1,.72-.22,1.73,1.73,0,0,1,.82.17,1.09,1.09,0,0,1,.66.81.42.42,0,0,1-.44.39,1.12,1.12,0,0,1-.5-.11,2.77,2.77,0,0,1-.71-.41,1.74,1.74,0,0,1-.52-.54s.22.18.6.43a3.51,3.51,0,0,0,.7.35c.24.11.66.15.67-.12s-.32-.5-.55-.63a1.79,1.79,0,0,0-.73-.2A5.36,5.36,0,0,0,126.34,99.06Z" style="fill:#263238"></path><path d="M130,116.72s0-.48-.22-1.21a5.43,5.43,0,0,0-1.47-2.5,5.34,5.34,0,0,0-2.58-1.32c-.74-.15-1.22-.11-1.22-.15a1.14,1.14,0,0,1,.33,0,3.84,3.84,0,0,1,.91,0,5.05,5.05,0,0,1,4.17,3.93,4.57,4.57,0,0,1,.11.9A1.55,1.55,0,0,1,130,116.72Z" style="fill:#263238"></path><path d="M136.6,114a26.82,26.82,0,0,1-3.36.63,31,31,0,0,1-3.39.43,27.3,27.3,0,0,1,3.36-.63A31.25,31.25,0,0,1,136.6,114Z" style="fill:#263238"></path><path d="M125.72,109.23a13.68,13.68,0,0,1-.73-4.8c.06,0,.14,1.08.35,2.4S125.78,109.22,125.72,109.23Z" style="fill:#263238"></path><path d="M126.19,112.46s-.24-.06-.51-.13-.49-.11-.49-.16.25-.12.55,0S126.22,112.42,126.19,112.46Z" style="fill:#263238"></path><path d="M127.87,113.46s-.22,0-.41-.19-.33-.3-.3-.34.22,0,.42.18S127.9,113.41,127.87,113.46Z" style="fill:#263238"></path><path d="M128.81,115.1c-.06,0-.09-.22-.2-.45s-.28-.39-.25-.44.28.06.42.35S128.86,115.11,128.81,115.1Z" style="fill:#263238"></path><path d="M129.31,116.29s-.14-.06-.21-.18-.1-.26,0-.29.15.06.22.19S129.36,116.26,129.31,116.29Z" style="fill:#263238"></path><path d="M168.74,58.67l8.51,2.51-4.6,16-12.49-3.54.22-1c1-4.48,5.52-22.7,7.26-25.39C169.59,44.22,168.74,58.67,168.74,58.67Z" style="fill:#3f3d56"></path><g style="opacity:0.4"><path d="M162,67.86a5.81,5.81,0,0,1,2.82,3,5.56,5.56,0,0,1,.09,4.07l-4.47-1.28Z"></path></g><path d="M168.92,51.54s0-5.15-1-4.78-6.19,18.61-7.8,26.86l.36.08,5.93-21.34S168.61,52.46,168.92,51.54Z" style="opacity:0.4"></path><path d="M160.46,74a2.67,2.67,0,0,1,0-.28c.05-.24.11-.51.18-.8.19-.8.43-1.78.71-2.94.61-2.48,1.51-5.9,2.58-9.64s2.12-7.12,2.91-9.55l1-2.87.27-.77a1,1,0,0,1,.11-.27s0,.1-.07.28l-.24.79L167,50.78c-.76,2.44-1.78,5.82-2.85,9.56s-2,7.15-2.64,9.62c-.31,1.15-.56,2.13-.77,2.93-.08.29-.15.55-.22.79A1.1,1.1,0,0,1,160.46,74Z" style="fill:#263238"></path><path d="M166.2,52.3a6.79,6.79,0,0,0,1.55-.15,6.69,6.69,0,0,0,1.39-.67,2.17,2.17,0,0,1-1.34.87A2.29,2.29,0,0,1,166.2,52.3Z" style="fill:#263238"></path><path d="M167.24,57.7a1.92,1.92,0,0,1,.76-.33c.43-.13.8-.19.81-.13s-.32.2-.75.32A1.84,1.84,0,0,1,167.24,57.7Z" style="fill:#263238"></path><path d="M167.55,59.19s.22-.25.54-.46.62-.33.65-.28-.21.25-.54.46S167.58,59.24,167.55,59.19Z" style="fill:#263238"></path><path d="M168.83,60.44c-.06,0,0-.4.13-.86s.28-.83.33-.81a2.12,2.12,0,0,1-.13.86A2,2,0,0,1,168.83,60.44Z" style="fill:#263238"></path><path d="M169.81,61a2.51,2.51,0,0,1,.4-1.94,6,6,0,0,1-.2,1A6,6,0,0,1,169.81,61Z" style="fill:#263238"></path><path d="M168.79,57.56a3,3,0,0,1,.3-1,5.9,5.9,0,0,1,.56-1,2.72,2.72,0,0,1,.44-.55.55.55,0,0,1,.39-.17.44.44,0,0,1,.36.28,2,2,0,0,1-1.22,2.17,2.14,2.14,0,0,1-.78.14c-.19,0-.28,0-.28-.06a3,3,0,0,0,1-.21,1.91,1.91,0,0,0,.82-.72,1.65,1.65,0,0,0,.27-1.24c-.08-.2-.29-.19-.45,0a3.42,3.42,0,0,0-.41.5,7.76,7.76,0,0,0-.58,1C168.94,57.18,168.82,57.57,168.79,57.56Z" style="fill:#263238"></path><path d="M168.82,57.28a1,1,0,0,1,.74.08,1.68,1.68,0,0,1,.67.5,1,1,0,0,1,.28,1A.42.42,0,0,1,170,59a1.09,1.09,0,0,1-.41-.3,3.25,3.25,0,0,1-.48-.67,1.49,1.49,0,0,1-.25-.7s.12.26.37.63a3.53,3.53,0,0,0,.49.61c.18.2.54.41.66.17a1,1,0,0,0-.24-.81,1.84,1.84,0,0,0-.59-.48A3,3,0,0,0,168.82,57.28Z" style="fill:#263238"></path><path d="M164.93,74.88s.17-.44.3-1.19a5.43,5.43,0,0,0-.33-2.88,5.36,5.36,0,0,0-1.81-2.26c-.61-.44-1.07-.6-1.05-.63s.12,0,.32.09a4,4,0,0,1,.81.42,5.09,5.09,0,0,1,1.92,2.3,5.2,5.2,0,0,1,.28,3,5,5,0,0,1-.28.87C165,74.79,164.94,74.89,164.93,74.88Z" style="fill:#263238"></path><path d="M172.05,75.13a26.75,26.75,0,0,1-3.32-.8,28.32,28.32,0,0,1-3.27-1,30.47,30.47,0,0,1,3.33.81A29,29,0,0,1,172.05,75.13Z" style="fill:#263238"></path><path d="M164.09,66.3a9.16,9.16,0,0,1,.44-2.4,9.62,9.62,0,0,1,.85-2.28c.06,0-.3,1-.66,2.34S164.15,66.31,164.09,66.3Z" style="fill:#263238"></path><path d="M163.19,69.43c-.05,0-.19-.14-.4-.32s-.41-.29-.39-.35.28,0,.52.2S163.24,69.41,163.19,69.43Z" style="fill:#263238"></path><path d="M164.32,71s-.18-.13-.3-.34-.18-.41-.13-.44.18.13.3.34S164.37,71,164.32,71Z" style="fill:#263238"></path><path d="M164.51,72.92s0-.24,0-.5-.1-.46,0-.49.23.16.25.48S164.55,73,164.51,72.92Z" style="fill:#263238"></path><path d="M164.48,74.21s-.11-.11-.12-.26,0-.27.07-.27.11.11.13.26S164.54,74.21,164.48,74.21Z" style="fill:#263238"></path><path d="M308.35,87.08l0,0A108.45,108.45,0,0,1,313,76.52c2.59-4.66,3-4.44,3.5-4,1.32,1.06-4.23,8.38-2.12,7.5s5.74-9.74,7.08-8.58c1.74,1.51-4.21,9.07-4.67,9.75s.51,1.36.89.72c.54-.91,6.51-10.33,8.23-8.86,1,.82-.67,2.4-.67,2.4s-6.22,8.4-5.39,9.07,4.68-4.14,5.85-5.85,2.44-1.83,2.76-.69c.22.77-3.25,6.1-4.45,7.77s-4.58,6.18-1.11,5.31,6.48-.23,7.17.51-.09,2-1.18,1.76a13,13,0,0,0-3.6.19,8.6,8.6,0,0,0-2.75.93c-1,.54-1.82,1-2.51,1.47a4.94,4.94,0,0,1-3.71.75c-1.89-.51-8.75-7.06-8.75-7.06Z" style="fill:#c17553"></path><path d="M310.51,202.64c-2.64,2.35-2.56,6.5-1.78,10s2,7,1,10.44c-1.24,4.06-5.57,7-5.52,11.28,0,3,2.27,5.43,3.27,8.24a10.41,10.41,0,0,1-1,8.85c-.75,1.2-1.79,2.48-1.43,3.84a3.67,3.67,0,0,0,2.61,2.17c6.52,2.16,14.42-1.87,16.52-8.41a28.35,28.35,0,0,1,.75,11,12.79,12.79,0,0,0,15.84-10.47c1-6.59-3.14-13.62-.5-19.74,1.35-3.11,4.27-5.37,5.47-8.55,1.11-2.93.58-6.2.29-9.32s-.23-6.57,1.74-9" style="fill:#263238"></path><path d="M310,182.64c2.95,1.36,5.59,2.55,5.59,2.55s3.16-5.57,9.11-3.41,19.16,8.33,19.16,8.33l.57,12.91-14,7.85-27.61-12.82A8.49,8.49,0,0,1,298.6,187h0A8.51,8.51,0,0,1,310,182.64Z" style="fill:#c17553"></path><path d="M333.06,188.53a.81.81,0,1,0-.65,1.49.81.81,0,0,0,.65-1.49Z" style="fill:#263238"></path><path d="M334.64,186.76c-.13.06.09.81-.21,1.62s-.95,1.25-.88,1.38.25,0,.54-.14a2.06,2.06,0,0,0,.83-1.06,2.15,2.15,0,0,0,.05-1.34C334.86,186.89,334.71,186.74,334.64,186.76Z" style="fill:#263238"></path><path d="M329.79,196.64a.81.81,0,0,0-1.07.42.8.8,0,0,0,.42,1.06.81.81,0,1,0,.65-1.48Z" style="fill:#263238"></path><path d="M330.8,195.61c-.14.06.08.81-.22,1.62s-.95,1.25-.88,1.38.25,0,.55-.14a2.15,2.15,0,0,0,.87-2.4C331,195.74,330.86,195.59,330.8,195.61Z" style="fill:#263238"></path><path d="M325.3,189.8a5.49,5.49,0,0,0,.73-1.23c.1-.2.22-.39.39-.37s.38.2.59.4l1.42,1.26c1,.89,1.94,1.69,2.63,2.25a5.61,5.61,0,0,0,1.15.85,5.92,5.92,0,0,0-1-1c-.64-.61-1.54-1.43-2.56-2.32l-1.43-1.25a1.47,1.47,0,0,0-.8-.44.54.54,0,0,0-.44.22,1.55,1.55,0,0,0-.18.33A6.5,6.5,0,0,0,325.3,189.8Z" style="fill:#263238"></path><path d="M323.4,192.11a8.72,8.72,0,0,1,.35-4.44,2.41,2.41,0,0,0-1.9,2.32C321.83,192,323.4,192.11,323.4,192.11Z" style="fill:#fff"></path><path d="M315.59,185.19a15.73,15.73,0,0,0-.74,8.8s-3.47-3.72-.71-9.43Z" style="fill:#7c442e"></path><path d="M321.88,217.34l.05-.12c1.12.34,2.59.8,3.33.92,13.46,2.09,20.33-7.55,21.24-9.65,1-2.25,3.93-5.66.46-14a14.19,14.19,0,0,0-2.08-3.54,14.06,14.06,0,0,0-4.32-4.88,7,7,0,0,0-2.82-1.38c-.05.1,1,.6,2.52,1.78a15.55,15.55,0,0,1,2.36,2.33,12,12,0,0,0-6.92-2.29l.47,1.35-1.5,9.42c2.58.33,5,2.55,6.07,3.68l0,.08c-9.41-2.08-14.47,7.08-14.47,7.08L310,201.38C307.49,213.71,321.88,217.34,321.88,217.34Z" style="fill:#263238"></path><path d="M317,204.81a2.64,2.64,0,0,0-.91,3.21,3.9,3.9,0,0,0,2.78,2.13,3,3,0,0,0,2.13-.24,3,3,0,0,0,1-2.67Z" style="fill:#c17553"></path><path d="M317.38,206.55c.08,0,0,.34.1.79a1.65,1.65,0,0,0,1.1,1.23,1.62,1.62,0,0,0,1.61-.34c.36-.3.48-.6.56-.58s.07.39-.28.84a1.9,1.9,0,0,1-3.37-1.1C317.09,206.81,317.32,206.52,317.38,206.55Z" style="fill:#7c442e"></path><path d="M368.38,76.56c-.24.52-23.45,27.28-23.45,27.28L332.09,88.93,350.52,66.3Z" style="fill:#455a64"></path><polygon points="344.93 103.84 346.66 104.8 370.04 77.49 368.18 76.45 344.93 103.84" style="fill:#263238"></polygon><path d="M356.36,74.63a.83.83,0,1,1,0-1.17A.83.83,0,0,1,356.36,74.63Z" style="fill:#263238"></path><path d="M240.08,151.19s-30-68.84-37.92-68.82-74.76,16-74.76,16l3.45,20L190,109.21l17.47,51.32a26.32,26.32,0,0,0,16.89,16.57l1.32,1Z" style="fill:#263238"></path><path d="M249.91,133.45s3.94-52.78-3.18-56.23-74.2-18.39-74.2-18.39l-5.67,19.51L224,96l5.34,74.5Z" style="fill:#263238"></path><path d="M240.51,148.68a30.44,30.44,0,0,1-4.2-3.64,30.22,30.22,0,0,1-3.83-4,28.77,28.77,0,0,1,4.19,3.63A29.64,29.64,0,0,1,240.51,148.68Z" style="fill:#455a64"></path><path d="M234,161.85c0,.09-.78-.29-2.06-.37a6.18,6.18,0,0,0-6.68,5.85,19.32,19.32,0,0,0,.1,2.09,3.72,3.72,0,0,1-.46-2.11,6.21,6.21,0,0,1,7.07-6.19A3.66,3.66,0,0,1,234,161.85Z" style="fill:#455a64"></path><path d="M232.48,138.11a1.31,1.31,0,0,1-.13-.24c-.09-.19-.19-.42-.33-.71l-1.22-2.75c-1.06-2.38-2.5-5.88-4.49-10.1-4.06-8.39-9.48-20.13-15.79-32.87a26.68,26.68,0,0,0-3.11-4.18,15.69,15.69,0,0,0-3.78-3.3,9.94,9.94,0,0,0-4.64-1.1,19.63,19.63,0,0,0-4.63.57c-6,1.47-11.41,2.77-16,3.8S170.14,89,167.57,89.5c-1.29.23-2.29.37-3,.44-.34,0-.61,0-.78,0h-.27s.36,0,1-.14,1.67-.28,2.95-.54c2.56-.52,6.24-1.35,10.78-2.43s9.94-2.4,15.93-3.9a19.1,19.1,0,0,1,4.76-.6,10.24,10.24,0,0,1,4.88,1.15,16.08,16.08,0,0,1,3.92,3.4A28.28,28.28,0,0,1,211,91.18c3.18,6.42,6.09,12.52,8.7,18.12s5,10.62,7,14.86,3.35,7.76,4.35,10.17c.48,1.18.85,2.12,1.13,2.79.11.3.21.54.28.73A1,1,0,0,1,232.48,138.11Z" style="fill:#455a64"></path><path d="M191.56,103.55a11.89,11.89,0,0,1-.42,2.63,11.92,11.92,0,0,1-.53,2.61,7.75,7.75,0,0,1,.95-5.24Z" style="fill:#455a64"></path><path d="M194.82,104.47a8.47,8.47,0,0,1-1.78,2.28,8.17,8.17,0,0,1-2.16,1.93,8,8,0,0,1,1.78-2.28C193.74,105.24,194.71,104.37,194.82,104.47Z" style="fill:#455a64"></path><path d="M228.24,91.26A17.1,17.1,0,0,1,226,93.59a16.22,16.22,0,0,1-2.28,2.26,11.22,11.22,0,0,1,4.5-4.59Z" style="fill:#455a64"></path><path d="M230.06,94.27a21.42,21.42,0,0,1-6.3,2,10.57,10.57,0,0,1,3.07-1.27A10.89,10.89,0,0,1,230.06,94.27Z" style="fill:#455a64"></path><path d="M229.38,170.52a1,1,0,0,1-.21-.11l-.57-.34-2.23-1.38L218,163.43l0,0v-.05c-4.3-12.95-11.47-34.58-19.6-59.08l-2-6.06.29.17c-9.54,1.72-18.51,3.7-26.61,5.54s-15.35,3.53-21.44,4.85-11,2.3-14.41,2.92c-1.69.32-3,.54-3.91.69l-1,.17a1.54,1.54,0,0,1-.35,0l.34-.08,1-.22,3.9-.78c3.39-.68,8.29-1.71,14.36-3.08l21.41-5c8.1-1.87,17.07-3.86,26.63-5.59l.22,0,.08.21c.63,1.93,1.31,4,2,6.07,8,24.53,15.13,46.18,19.38,59.15l-.06-.08,8.26,5.38,2.18,1.44.56.38A1.28,1.28,0,0,1,229.38,170.52Z" style="fill:#455a64"></path><path d="M236.49,158.17a1.11,1.11,0,0,1-.22-.07l-.65-.26-2.5-1-9.42-3.95-.06,0,0-.06c-4.62-13.19-12.33-35.15-21.05-60l-1.26-3.61.3.17-51.08,10.84-15.36,3.21-4.17.84-1.08.21a2.14,2.14,0,0,1-.37,0,1.84,1.84,0,0,1,.36-.1l1.07-.26,4.15-.94,15.33-3.36,51-11,.23,0,.07.22,1.26,3.61c8.64,24.9,16.26,46.89,20.84,60.09l-.08-.09,9.36,4.08,2.47,1.1.64.29Z" style="fill:#455a64"></path><path d="M171.26,63.92l.35.07,1,.24,3.86,1,14.17,3.64L237.35,81l7.13,1.88.18,0v.2c.17,8.57.34,16.66.49,24s.05,13.87-.21,19.34-.66,9.86-1,12.86c-.16,1.51-.36,2.67-.47,3.46-.06.37-.11.66-.14.89a1.48,1.48,0,0,1-.07.3,1.45,1.45,0,0,1,0-.31q0-.33.09-.9c.08-.79.25-1.95.39-3.46.32-3,.66-7.39.87-12.85s.24-12,.1-19.32-.43-15.41-.55-24l.19.25-7.12-1.87L190.55,69.19l-14.13-3.8-3.83-1.06-1-.29Z" style="fill:#455a64"></path><path d="M169,71.89a1.55,1.55,0,0,1,.32,0l.92.21,3.53.85,12.95,3.21L229.44,87l7.12,1.82.19,0v.2c.09,15.48.17,29.2.23,39.09,0,4.91,0,8.86,0,11.62,0,1.34,0,2.39,0,3.14,0,.34,0,.6,0,.81a.84.84,0,0,1,0,.28.94.94,0,0,1,0-.27c0-.21,0-.48,0-.82,0-.75,0-1.8-.07-3.13,0-2.77-.1-6.72-.17-11.63-.1-9.89-.24-23.61-.39-39.08l.19.25-7.12-1.81L186.66,76.57l-12.91-3.38-3.51-.94-.9-.26A1.59,1.59,0,0,1,169,71.89Z" style="fill:#455a64"></path><path d="M237.66,149.51c-.06,0,.34-.35.91,0a1,1,0,0,1,.41,1,1.08,1.08,0,0,1-2.11,0,1,1,0,0,1,.38-1c.54-.38,1-.13.92-.08s-.36,0-.67.36a.62.62,0,0,0-.17.63.7.7,0,0,0,.59.48.65.65,0,0,0,.59-.46.56.56,0,0,0-.16-.6C238,149.49,237.68,149.58,237.66,149.51Z" style="fill:#455a64"></path><path d="M250.53,132.44c0,.09-.75,0-1.86.24a5.22,5.22,0,0,0-3.73,6.87c.36,1.08.87,1.63.8,1.69a3.1,3.1,0,0,1-1.15-1.57,5.31,5.31,0,0,1,4-7.35A3.14,3.14,0,0,1,250.53,132.44Z" style="fill:#455a64"></path><path d="M309.63,178.39a21.16,21.16,0,0,1,.3-4.78,25.62,25.62,0,0,0,0-7.77c-1.95-12.87-6.11-38.29-6.11-38.29L319,98.24l-11.4-11.1s-21.38,34.33-22,38.1c-.55,3.17,4,24.09,4.4,30.22l-21.35-2.6-18.72-19.41-24.23,44.66c4.56,3.43,33.41,16.61,53,25.37l-16.52,27.1-.76-21.67-16.86.6,1.16,32.85a13.86,13.86,0,0,0,11,13.26,13.59,13.59,0,0,0,13.39-5.12c8.66-11.4,28.69-38,28.79-40a38.62,38.62,0,0,0,5.23-9.17,3.16,3.16,0,0,0,2.85-1.39c1.46-1.9,4.57-16.6,4.57-16.6S312,179.33,309.63,178.39Z" style="fill:#3f3d56"></path><path d="M309,178.76a24.26,24.26,0,0,0-1.21,3c-.53,1.93-1.14,4.68-1.84,7.69s-1.16,5.77-1.4,7.78-.3,3.26-.38,3.26a2.93,2.93,0,0,1-.08-.89c0-.57,0-1.39.09-2.41a57.23,57.23,0,0,1,1.26-7.85c.7-3,1.36-5.75,2-7.7a11.42,11.42,0,0,1,1-2.2A2.5,2.5,0,0,1,309,178.76Z" style="fill:#263238"></path><path d="M304.68,196.05c.09-.12.78.33,1.75.37s1.7-.31,1.78-.19-.65.78-1.81.71S304.56,196.14,304.68,196.05Z" style="fill:#263238"></path><path d="M305.1,190.75c.11-.1.84.53,1.95.84s2.07.16,2.1.31-1,.55-2.24.19S305,190.83,305.1,190.75Z" style="fill:#263238"></path><path d="M307,185.13c0-.14,1-.15,2.08.43s1.61,1.43,1.5,1.51-.78-.53-1.75-1S307,185.28,307,185.13Z" style="fill:#263238"></path><path d="M280.36,179.57a13.44,13.44,0,0,1-3.31,1.68,13.58,13.58,0,0,1-3.52,1.21,13.68,13.68,0,0,1,3.32-1.69A12.89,12.89,0,0,1,280.36,179.57Z" style="fill:#fafafa"></path><path d="M295,190.44a11.1,11.1,0,0,1-1.6-3,11.48,11.48,0,0,1-1.13-3.21,11.49,11.49,0,0,1,1.61,3A11.36,11.36,0,0,1,295,190.44Z" style="fill:#fafafa"></path><path d="M287,194.41c-.07.12-.94-.27-1.83-1s-1.39-1.57-1.29-1.66.79.53,1.63,1.26S287.09,194.29,287,194.41Z" style="fill:#fafafa"></path><path d="M286.69,212.13a9.08,9.08,0,0,1-2.89,1.07,9.22,9.22,0,0,1-3,.56,9.08,9.08,0,0,1,2.89-1.07A9.18,9.18,0,0,1,286.69,212.13Z" style="fill:#fafafa"></path><path d="M282.5,227.67a8.44,8.44,0,0,1-1.19-3,9.13,9.13,0,0,1-.52-3.19,11.8,11.8,0,0,1,1,3.05A12.56,12.56,0,0,1,282.5,227.67Z" style="fill:#fafafa"></path><path d="M273,227.72a6.62,6.62,0,0,1-2.76,1.42,6.53,6.53,0,0,1-3.06.51,16.48,16.48,0,0,1,2.9-1A14.83,14.83,0,0,1,273,227.72Z" style="fill:#fafafa"></path><path d="M267.36,244.54a12.56,12.56,0,0,1,.25-2.56,12.38,12.38,0,0,1,.28-2.55,4.58,4.58,0,0,1,.24,2.61A4.63,4.63,0,0,1,267.36,244.54Z" style="fill:#fafafa"></path><path d="M259.11,247.26a14.22,14.22,0,0,1-3.68-.82,13.88,13.88,0,0,1-3.54-1.31,13.48,13.48,0,0,1,3.68.81A13.67,13.67,0,0,1,259.11,247.26Z" style="fill:#fafafa"></path><path d="M257.55,233a29,29,0,0,1-5.79,5.12,28.23,28.23,0,0,1,5.79-5.12Z" style="fill:#fafafa"></path><path d="M253.6,224.56a8.9,8.9,0,0,1-4.26-3.81,13.5,13.5,0,0,1,2.17,1.87C252.67,223.66,253.68,224.43,253.6,224.56Z" style="fill:#fafafa"></path><path d="M257.15,217.91c-.15,0-.37-.89-.83-1.92s-1-1.81-.87-1.9.85.57,1.34,1.69A3,3,0,0,1,257.15,217.91Z" style="fill:#fafafa"></path><path d="M276.29,197.2c-.1.11-1.33-.9-3-1.88a35.57,35.57,0,0,1-3.12-1.72,7.54,7.54,0,0,1,3.38,1.27A7.36,7.36,0,0,1,276.29,197.2Z" style="fill:#fafafa"></path><path d="M295.37,203.21a8.92,8.92,0,0,1-3.12,1.53,8.71,8.71,0,0,1-3.4.71,18,18,0,0,1,3.23-1.2A17.14,17.14,0,0,1,295.37,203.21Z" style="fill:#fafafa"></path><path d="M299.36,177.47a13.79,13.79,0,0,1,2.92-2.33,13.63,13.63,0,0,1,3.21-1.91,13.64,13.64,0,0,1-2.92,2.34A13.37,13.37,0,0,1,299.36,177.47Z" style="fill:#fafafa"></path><path d="M297.21,169.38a39.14,39.14,0,0,1-8.92,1.58,40.37,40.37,0,0,1,8.92-1.58Z" style="fill:#fafafa"></path><path d="M280.1,170.77a13.42,13.42,0,0,1-.77-3.57,13.15,13.15,0,0,1-.25-3.65,13,13,0,0,1,.77,3.57A12.7,12.7,0,0,1,280.1,170.77Z" style="fill:#fafafa"></path><path d="M294.66,160.07a8.55,8.55,0,0,1-3.68.19,8.15,8.15,0,0,1-3.55-.93,31.18,31.18,0,0,1,3.61.41A28.8,28.8,0,0,1,294.66,160.07Z" style="fill:#fafafa"></path><path d="M267.05,166a26.24,26.24,0,0,1,4.54-5.79,13,13,0,0,1-2.06,3.05A13.52,13.52,0,0,1,267.05,166Z" style="fill:#fafafa"></path><path d="M265.2,179.27c-.11.09-1-.81-2-2a8.18,8.18,0,0,1-1.65-2.36c.11-.09,1,.81,2.05,2A8.26,8.26,0,0,1,265.2,179.27Z" style="fill:#fafafa"></path><path d="M264.5,187.36a35.81,35.81,0,0,1-8.36-1.7,17.54,17.54,0,0,1,4.23.59A17.24,17.24,0,0,1,264.5,187.36Z" style="fill:#fafafa"></path><path d="M254.31,178.72a18.19,18.19,0,0,1-3.69.2,19.19,19.19,0,0,1-3.68,0,10.26,10.26,0,0,1,3.67-.49A10.51,10.51,0,0,1,254.31,178.72Z" style="fill:#fafafa"></path><path d="M258.87,166.94a15.92,15.92,0,0,1-1.05-4,16.4,16.4,0,0,1-.54-4.07,16.45,16.45,0,0,1,1.05,4A16.3,16.3,0,0,1,258.87,166.94Z" style="fill:#fafafa"></path><path d="M251.05,167.39a6.86,6.86,0,0,1-2.62-.38,6.77,6.77,0,0,1-2.48-.89,6.83,6.83,0,0,1,2.61.38A7.09,7.09,0,0,1,251.05,167.39Z" style="fill:#fafafa"></path><path d="M259.2,149.33c.1.11-.7,1-1.78,2a7.27,7.27,0,0,1-2.14,1.67c-.1-.1.7-1,1.78-2.05A7.72,7.72,0,0,1,259.2,149.33Z" style="fill:#fafafa"></path><path d="M248.15,150.68a12.25,12.25,0,0,1,.38-3.51,12.15,12.15,0,0,1,.88-3.43,12.5,12.5,0,0,1-.37,3.52A11.7,11.7,0,0,1,248.15,150.68Z" style="fill:#fafafa"></path><path d="M243.83,160.31a13.29,13.29,0,0,1-2.68,1,13,13,0,0,1-2.72.83,5.88,5.88,0,0,1,2.56-1.33A5.94,5.94,0,0,1,243.83,160.31Z" style="fill:#fafafa"></path><path d="M236.74,175.73a12,12,0,0,1,0-5,12,12,0,0,1,0,5Z" style="fill:#fafafa"></path><path d="M299.46,148.68a13.89,13.89,0,0,1-4.95,2,7.23,7.23,0,0,1,2.38-1.23A7.11,7.11,0,0,1,299.46,148.68Z" style="fill:#fafafa"></path><path d="M298.63,140.3A10.59,10.59,0,0,1,295,139a10.33,10.33,0,0,1-3.23-2.12,23.69,23.69,0,0,1,3.46,1.65A22.91,22.91,0,0,1,298.63,140.3Z" style="fill:#fafafa"></path><path d="M294.64,129.13c-.07-.14,1.57-1.09,3.28-2.65s2.83-3.08,3-3a12.05,12.05,0,0,1-6.24,5.64Z" style="fill:#fafafa"></path><path d="M292.39,123.49c-.13.07-.7-.7-1.29-1.71s-1-1.9-.84-2,.71.69,1.29,1.71S292.51,123.42,292.39,123.49Z" style="fill:#fafafa"></path><path d="M302.33,117.09a13.1,13.1,0,0,1-2.69-3.14,13.39,13.39,0,0,1-2.05-3.61,21.94,21.94,0,0,1,2.47,3.31A22.79,22.79,0,0,1,302.33,117.09Z" style="fill:#fafafa"></path><path d="M309.1,107.53a9.72,9.72,0,0,1-3,1A9.54,9.54,0,0,1,303,109a9.72,9.72,0,0,1,3-1A9.5,9.5,0,0,1,309.1,107.53Z" style="fill:#fafafa"></path><path d="M306,100.55a9.13,9.13,0,0,1,.75-3A9.51,9.51,0,0,1,308,94.75a9.1,9.1,0,0,1-.75,3A9.51,9.51,0,0,1,306,100.55Z" style="fill:#fafafa"></path><path d="M303.6,162.83a6.84,6.84,0,0,1-1-3,6.67,6.67,0,0,1,0-3.18,17,17,0,0,1,.5,3.1A18.05,18.05,0,0,1,303.6,162.83Z" style="fill:#fafafa"></path><path d="M247.15,209.41c-.66-3.8-1.83-11.22-1.92-13.56-.17-4.84.26-4.86.83-4.78,1.52.2.63,8.49,1.85,6.82s-.09-10.27,1.5-10c2.06.36,1,9,.93,9.76s1,.82,1,.15c0-1,.23-11.07,2.26-10.74,1.13.19.6,2.18.6,2.18s-.91,9.44.05,9.57,1.7-5.4,1.82-7.28,1-2.56,1.82-1.83c.53.5.32,6.27.17,8.13s-.67,6.94,1.63,4.64,4.92-3.21,5.8-3a1,1,0,0,1-.09,1.92,12.39,12.39,0,0,0-2.71,1.84,7.56,7.56,0,0,0-1.7,2c-.53.89-1.69,3.05-2,3.72" style="fill:#c17553"></path></g><g id="character-1--inject-1"><path d="M184.7,324.06a110.48,110.48,0,0,0-2.13-11.67c.06-4.47.58-48.62-3.31-53.28l-15.77-20.25-13.75,14.75,14.85,17.5c.66,3.56,5.09,43.05,5.09,43.05h.06c-.21.44-.44.9-.71,1.41a7.64,7.64,0,0,1-1.57,2,11.38,11.38,0,0,1-2.55,1.89,1,1,0,0,0,0,1.87c.87.2,3.38-.78,5.51-3.11s1.83,2.63,1.76,4.43,0,7.41.5,7.87c.79.68,1.66,0,1.69-1.85s.51-7.21,1.46-7.12.44,9.27.44,9.27-.42,1.95.67,2.08c2,.24,1.79-9.57,1.75-10.5,0-.65,1-.59,1,.11s-.71,9.15,1.3,9.42c1.55.2-.08-8.07,1-9.74s.6,6.4,2.08,6.53C184.65,328.77,185.07,328.73,184.7,324.06Z" style="fill:#ffbe9d"></path><path d="M178.69,263.68s.18-.09.37-.38a2.61,2.61,0,0,0,.37-1.43,2.49,2.49,0,0,0-1.05-1.93,2.55,2.55,0,0,0-2.66-.24,2,2,0,0,0-1,1.08,1.8,1.8,0,0,0,.05,1.37,1.46,1.46,0,0,0,2,.66,1.2,1.2,0,0,0,.48-1.39c-.13-.35-.34-.44-.34-.42s.12.16.18.47a1,1,0,0,1-.48,1.08,1.13,1.13,0,0,1-1.52-.56,1.44,1.44,0,0,1,0-1.06,1.59,1.59,0,0,1,.79-.85,2.27,2.27,0,0,1,3.2,1.81A3.27,3.27,0,0,1,178.69,263.68Z" style="fill:#eb996e"></path><path d="M79.67,192.91c-1.07-3.47-10-42.19-10-42.19h-.07c.16-.46.33-.94.55-1.48a7.25,7.25,0,0,1,1.33-2.17,11.59,11.59,0,0,1,2.31-2.18,1,1,0,0,0-.2-1.85c-.88-.1-3.27,1.16-5.11,3.71s-2.13-2.4-2.26-4.2-.81-7.36-1.4-7.76c-.86-.58-1.64.23-1.47,2s.32,7.22-.63,7.25-1.5-9.16-1.5-9.16.2-2-.9-2c-2,0-.69,9.7-.54,10.63.1.64-.94.7-1,0s-.34-9.18-2.37-9.21c-1.56,0,1,8,.08,9.79s-1.32-6.29-2.81-6.25c-.55,0-1,.09-.06,4.7a106.83,106.83,0,0,0,3.45,11.34c.45,4.45,5,48.37,9.37,52.56l18,18.32,12-16.23Z" style="fill:#ffbe9d"></path><path d="M66.51,201.89s-.17.12-.33.43a2.51,2.51,0,0,0,1.06,3.25,2.55,2.55,0,0,0,2.67-.06,2,2,0,0,0,.86-1.18,1.82,1.82,0,0,0-.2-1.36,1.46,1.46,0,0,0-2.1-.43,1.21,1.21,0,0,0-.33,1.44c.17.33.39.4.39.38s-.14-.14-.23-.44a1,1,0,0,1,.35-1.13,1.14,1.14,0,0,1,1.58.38,1.46,1.46,0,0,1,.13,1.05,1.63,1.63,0,0,1-.69.93,2.18,2.18,0,0,1-2.24.07,2.21,2.21,0,0,1-1.15-1.5A3.23,3.23,0,0,1,66.51,201.89Z" style="fill:#eb996e"></path><path d="M150,398.57l-8.84-.7,1.2-16.59,13,.89v1c-.08,4.59-.73,23.35-1.87,26.34C152.12,412.89,150,398.57,150,398.57Z" style="fill:#3f3d56"></path><g style="opacity:0.4"><path d="M154.72,388.18a5.78,5.78,0,0,1-3.38-2.38,5.57,5.57,0,0,1-.92-4l4.63.33Z"></path></g><path d="M151.27,405.58s1.06,5,1.92,4.49,2.23-19.49,2.1-27.9h-.37l-1.41,22.1S151.38,404.62,151.27,405.58Z" style="opacity:0.4"></path><path d="M154.93,381.91s0,.1,0,.29,0,.52,0,.82c0,.82-.06,1.83-.09,3-.09,2.56-.27,6.08-.54,10s-.61,7.4-.88,9.94c-.14,1.18-.25,2.19-.35,3,0,.3-.07.57-.1.81s-.05.28-.05.28a.86.86,0,0,1,0-.28c0-.25,0-.52.07-.82.07-.82.16-1.83.27-3,.24-2.55.55-6.06.82-9.95s.48-7.4.61-9.95c.06-1.19.11-2.2.15-3,0-.31,0-.58.05-.82A1.11,1.11,0,0,1,154.93,381.91Z" style="fill:#263238"></path><path d="M153.77,404.29a6.45,6.45,0,0,0-1.48.45,6.79,6.79,0,0,0-1.23.95,2.7,2.7,0,0,1,2.71-1.4Z" style="fill:#263238"></path><path d="M151.64,399.21c0,.05-.28.27-.67.48s-.75.35-.77.3.27-.26.67-.48S151.61,399.16,151.64,399.21Z" style="fill:#263238"></path><path d="M151,397.82s-.16.29-.44.56-.53.45-.57.41.16-.29.43-.56S151,397.78,151,397.82Z" style="fill:#263238"></path><path d="M149.52,396.86c.06,0,.08.39,0,.87a2.11,2.11,0,0,1-.15.86c-.06,0-.08-.39,0-.87A2.06,2.06,0,0,1,149.52,396.86Z" style="fill:#263238"></path><path d="M148.44,396.49a1.67,1.67,0,0,1,.21,1,1.76,1.76,0,0,1-.2,1,4.58,4.58,0,0,1,0-1A4.94,4.94,0,0,1,148.44,396.49Z" style="fill:#263238"></path><path d="M150.15,399.67a2.75,2.75,0,0,1-.08,1.07,6.35,6.35,0,0,1-.33,1.11,2.68,2.68,0,0,1-.32.63.57.57,0,0,1-.35.24.4.4,0,0,1-.41-.19,2,2,0,0,1,1.48-2.67.64.64,0,0,1,.29,0,3,3,0,0,0-.94.42,1.94,1.94,0,0,0-.66.87,1.67,1.67,0,0,0,0,1.28c.12.17.32.12.45-.06a4,4,0,0,0,.3-.58,8,8,0,0,0,.36-1.08C150.09,400.07,150.12,399.67,150.15,399.67Z" style="fill:#263238"></path><path d="M150.19,400a1.07,1.07,0,0,1-.75.07,1.67,1.67,0,0,1-.76-.35,1.07,1.07,0,0,1-.48-.92.43.43,0,0,1,.52-.3,1.23,1.23,0,0,1,.46.22,3.36,3.36,0,0,1,.61.55c.3.36.41.63.38.64s-.17-.23-.49-.54a4,4,0,0,0-.6-.5c-.22-.16-.62-.29-.68,0s.2.55.4.73a1.74,1.74,0,0,0,.67.35A4.85,4.85,0,0,0,150.19,400Z" style="fill:#263238"></path><path d="M150.36,381.92s-.08.47,0,1.23a5.37,5.37,0,0,0,.91,2.75,5.28,5.28,0,0,0,2.24,1.84,10.84,10.84,0,0,0,1.16.4s-.12,0-.34,0a4.23,4.23,0,0,1-.88-.25,5,5,0,0,1-3.23-4.72,4.13,4.13,0,0,1,.09-.91A1,1,0,0,1,150.36,381.92Z" style="fill:#263238"></path><path d="M143.34,383.14a29.62,29.62,0,0,1,3.42.11,28,28,0,0,1,3.4.3,30.88,30.88,0,0,1-3.42-.1A29.09,29.09,0,0,1,143.34,383.14Z" style="fill:#263238"></path><path d="M153,390.15a8.69,8.69,0,0,1,.07,2.43,9.46,9.46,0,0,1-.37,2.42c-.06,0,.09-1.09.17-2.43S152.9,390.15,153,390.15Z" style="fill:#263238"></path><path d="M153.18,386.9s.23.1.47.23.45.2.45.26-.27.07-.55-.08S153.14,386.93,153.18,386.9Z" style="fill:#263238"></path><path d="M151.75,385.56s.21.08.37.27.26.36.21.4-.2-.09-.37-.27S151.71,385.6,151.75,385.56Z" style="fill:#263238"></path><path d="M151.18,383.76s0,.23.1.48.19.44.15.48-.26-.12-.34-.43S151.13,383.74,151.18,383.76Z" style="fill:#263238"></path><path d="M150.94,382.49c.05,0,.13.08.17.22s0,.27,0,.29-.13-.09-.18-.23S150.89,382.5,150.94,382.49Z" style="fill:#263238"></path><path d="M216.76,344.93l-7.36,5L200,336.16l10.69-7.37.63.81c2.8,3.65,14,18.73,14.94,21.78C227.36,354.79,216.76,344.93,216.76,344.93Z" style="fill:#3f3d56"></path><g style="opacity:0.4"><path d="M214,333.84a5.75,5.75,0,0,1-4.12.25,5.63,5.63,0,0,1-3.19-2.53l3.83-2.62Z"></path></g><path d="M222.14,349.61s4,3.28,4.3,2.31-10.4-16.64-15.73-23.13l-.29.23,12.66,18.17S221.63,348.79,222.14,349.61Z" style="opacity:0.4"></path><path d="M210.26,328.81a1.47,1.47,0,0,1,.19.22l.5.65,1.82,2.42c1.51,2,3.57,4.92,5.78,8.13s4.13,6.17,5.5,8.33l1.6,2.56.43.71a1.34,1.34,0,0,1,.13.25l-.17-.23c-.13-.21-.28-.43-.45-.69l-1.66-2.52c-1.4-2.14-3.35-5.08-5.55-8.29s-4.24-6.09-5.73-8.17l-1.76-2.45c-.18-.25-.33-.48-.48-.68Z" style="fill:#263238"></path><path d="M223.29,347a6.25,6.25,0,0,0-.87,1.28,6.41,6.41,0,0,0-.37,1.5,2.21,2.21,0,0,1,.18-1.59A2.23,2.23,0,0,1,223.29,347Z" style="fill:#263238"></path><path d="M218.46,344.39c.06,0-.05.38-.23.8s-.36.73-.41.71a1.72,1.72,0,0,1,.23-.79C218.23,344.69,218.41,344.37,218.46,344.39Z" style="fill:#263238"></path><path d="M217.12,343.68a1.38,1.38,0,0,1,0,.71c-.06.38-.14.68-.2.68a1.32,1.32,0,0,1,0-.71C217,344,217.06,343.68,217.12,343.68Z" style="fill:#263238"></path><path d="M215.34,343.87s.31.26.58.65a2.09,2.09,0,0,1,.42.77c-.05,0-.31-.26-.58-.65A2,2,0,0,1,215.34,343.87Z" style="fill:#263238"></path><path d="M214.26,344.25a1.72,1.72,0,0,1,.78.64,1.67,1.67,0,0,1,.46.9c-.06,0-.28-.35-.62-.77S214.23,344.3,214.26,344.25Z" style="fill:#263238"></path><path d="M217.59,345.68a3,3,0,0,1,.59.88,6.19,6.19,0,0,1,.44,1.08,3.5,3.5,0,0,1,.15.69.61.61,0,0,1-.13.41.41.41,0,0,1-.44.11,2,2,0,0,1-.9-2.33,2.13,2.13,0,0,1,.39-.69c.13-.14.22-.19.23-.18a2.75,2.75,0,0,0-.48.91,1.94,1.94,0,0,0,0,1.09,1.59,1.59,0,0,0,.79,1c.2.07.32-.1.31-.31a3.46,3.46,0,0,0-.13-.64,6.86,6.86,0,0,0-.38-1.07C217.79,346,217.56,345.7,217.59,345.68Z" style="fill:#263238"></path><path d="M217.79,345.88a1.14,1.14,0,0,1-.55.52,1.76,1.76,0,0,1-.81.2,1.08,1.08,0,0,1-1-.43.43.43,0,0,1,.22-.55,1.22,1.22,0,0,1,.5-.12,3.47,3.47,0,0,1,.82.05,1.51,1.51,0,0,1,.7.26s-.28-.06-.72-.12a4,4,0,0,0-.78,0c-.27,0-.66.15-.55.4a1,1,0,0,0,.77.32,1.69,1.69,0,0,0,.74-.14A5,5,0,0,0,217.79,345.88Z" style="fill:#263238"></path><path d="M206.7,331.66s.23.42.73,1a5.18,5.18,0,0,0,5.32,1.63c.73-.19,1.14-.44,1.16-.41s-.09.08-.28.19a4.16,4.16,0,0,1-.84.36,5,5,0,0,1-5.47-1.68,4.4,4.4,0,0,1-.5-.77A1,1,0,0,1,206.7,331.66Z" style="fill:#263238"></path><path d="M202,337a30.09,30.09,0,0,1,2.74-2.05,28.84,28.84,0,0,1,2.85-1.88,30.57,30.57,0,0,1-2.74,2.05A28.84,28.84,0,0,1,202,337Z" style="fill:#263238"></path><path d="M213.85,336.48a9.94,9.94,0,0,1,1.57,1.87,9.43,9.43,0,0,1,1.21,2.11s-.61-.9-1.38-2S213.8,336.52,213.85,336.48Z" style="fill:#263238"></path><path d="M212,333.79c0-.05.24-.05.51-.1s.48-.12.51-.08-.16.22-.47.28S212,333.85,212,333.79Z" style="fill:#263238"></path><path d="M210.05,333.64c0-.05.21-.06.45,0s.43.13.42.18-.21.07-.45,0S210,333.7,210.05,333.64Z" style="fill:#263238"></path><path d="M208.48,332.59c.05,0,.17.16.38.31s.42.23.41.29-.27.07-.53-.13S208.43,332.6,208.48,332.59Z" style="fill:#263238"></path><path d="M207.5,331.74s.16,0,.28.07.19.19.16.24-.15,0-.28-.07S207.47,331.79,207.5,331.74Z" style="fill:#263238"></path><path d="M136.23,193.16a1.56,1.56,0,0,0,2.09,2c1.05-.47,1.25-1.87,1.11-3s-.45-2.37.08-3.38a7.4,7.4,0,0,1,1.86-1.84,5,5,0,0,0,1.6-4.13,4.14,4.14,0,0,0-2.68-3.42c-1.48-.51-3.35-.14-4.41-1.29-.77-.84-.75-2.13-1.33-3.1-.89-1.52-2.94-1.86-4.69-1.72s-3.55.6-5.23.09c-1.41-.43-2.52-1.49-3.82-2.17a7.69,7.69,0,0,0-10.58,10,4.91,4.91,0,0,0,2.26,2.49" style="fill:#455a64"></path><path d="M134.48,223l-16.55-1.32c-.11-1.94,0-9.42,0-9.42s-6.89-1.07-7-8,1.11-22.7,1.11-22.7h0a23.93,23.93,0,0,1,24.05,3l1,.79Z" style="fill:#ffbe9d"></path><path d="M115.17,193.46a1,1,0,1,0-1.42-.07A1,1,0,0,0,115.17,193.46Z" style="fill:#263238"></path><path d="M112,191.86c.11.12.78-.4,1.73-.4s1.64.48,1.75.36-.06-.27-.36-.5a2.34,2.34,0,0,0-1.39-.43,2.2,2.2,0,0,0-1.38.47C112.06,191.59,112,191.81,112,191.86Z" style="fill:#263238"></path><path d="M123.94,192.69a1,1,0,1,0,1.38.33A1,1,0,0,0,123.94,192.69Z" style="fill:#263238"></path><path d="M122.32,192.7c.1.12.78-.4,1.73-.41s1.64.49,1.74.37-.06-.27-.36-.5a2.25,2.25,0,0,0-1.39-.44,2.35,2.35,0,0,0-1.38.47C122.37,192.43,122.26,192.65,122.32,192.7Z" style="fill:#263238"></path><path d="M118.51,200.53a4.26,4.26,0,0,0-1.53-.33c-.25,0-.45-.08-.46-.22a1.34,1.34,0,0,1,.17-.71c.25-.62.49-1.26.75-1.92a26.49,26.49,0,0,0,1.63-5.07,26.65,26.65,0,0,0-2.13,4.88c-.25.67-.48,1.31-.71,1.94a1.58,1.58,0,0,0-.14,1,.7.7,0,0,0,.43.4,1.33,1.33,0,0,0,.42.05A4.67,4.67,0,0,0,118.51,200.53Z" style="fill:#263238"></path><path d="M121.59,201.57a17.59,17.59,0,0,1-4.65,1.36,2.62,2.62,0,0,0,3.09,1C122.1,203.22,121.59,201.57,121.59,201.57Z" style="fill:#fff"></path><path d="M118,212.16a16,16,0,0,0,9-2.55s-2.12,5-9,4.34Z" style="fill:#eb996e"></path><path d="M112,183.33s4,2.33,9.67,0c3.71-1.52,7.93-2.08,8.8-1.29s.78,4.47,4.24,5.81c0,0-.76,7,2.05,7s1.87-11,1.87-11L132,179.94l-7.37-2-7.11.47L112,179.53Z" style="fill:#455a64"></path><path d="M136.32,192.54c.12,0,4.74-1.4,4.59,3.31s-4.85,3.59-4.86,3.45S136.32,192.54,136.32,192.54Z" style="fill:#ffbe9d"></path><path d="M137.55,197.57s.08.06.22.12a.81.81,0,0,0,.61,0,2.06,2.06,0,0,0,1-1.8,2.69,2.69,0,0,0-.2-1.18,1,1,0,0,0-.59-.65.42.42,0,0,0-.49.21c-.07.13,0,.23-.07.23s-.1-.08-.05-.27a.54.54,0,0,1,.19-.29.64.64,0,0,1,.46-.11,1.17,1.17,0,0,1,.83.76,2.71,2.71,0,0,1,.24,1.32,2.13,2.13,0,0,1-1.26,2,.87.87,0,0,1-.74-.15C137.55,197.68,137.53,197.57,137.55,197.57Z" style="fill:#eb996e"></path><path d="M139.52,178c0,.14-.74.07-1.52.33s-1.33.69-1.44.59.33-.8,1.28-1.09S139.57,177.82,139.52,178Z" style="fill:#263238"></path><path d="M136.84,175a3.18,3.18,0,0,1,.14,2.23c-.25,1.28-1,2-1.14,1.94s.41-.9.63-2S136.68,175,136.84,175Z" style="fill:#263238"></path><path d="M116.62,190.32c-.14.25-1,0-2.13,0s-2,.1-2.13-.17.81-.94,2.18-.87S116.78,190.08,116.62,190.32Z" style="fill:#263238"></path><path d="M127.19,189.43c-.14.26-1,0-2.13,0s-2,.1-2.13-.17.81-.93,2.18-.87S127.35,189.2,127.19,189.43Z" style="fill:#263238"></path><path d="M203.34,331.65,172,351.37l-20.2-36.17s.1-4-.1-6.27c-.1-1.25-3.71-7.37-3.71-7.37l-22.71,2L126.8,291H98.74c-.39.73-11.83,54.79-16.83,84.73a16.14,16.14,0,0,0,14.67,18.75L146.43,399l1.38-19.78-36.57-5.6,11.63-51,26.79,47.76a20.77,20.77,0,0,0,28.85,7.25l36.94-28Z" style="fill:#263238"></path><g style="opacity:0.6000000000000001"><path d="M123.38,321.2s-.24.1-.66-.05a2.34,2.34,0,0,1-1.26-1.3,6.88,6.88,0,0,1-.36-2.62c0-1,0-2.05,0-3.16,0-2.25,0-4.28,0-5.76a10.39,10.39,0,0,1,.17-2.38,11.31,11.31,0,0,1,.2,2.38c.06,1.47.1,3.51.12,5.75v3.17a7.51,7.51,0,0,0,.22,2.49,2.26,2.26,0,0,0,1,1.24C123.15,321.15,123.38,321.16,123.38,321.2Z" style="fill:#455a64"></path></g><g style="opacity:0.6000000000000001"><path d="M147.86,306.76a1.49,1.49,0,0,1-.26.59,5.62,5.62,0,0,1-1.12,1.35,6.73,6.73,0,0,1-10.25-1.34,5.77,5.77,0,0,1-.74-1.59c-.11-.4-.13-.63-.1-.64a18.36,18.36,0,0,0,1.14,2,6.64,6.64,0,0,0,9.71,1.27A19.53,19.53,0,0,0,147.86,306.76Z" style="fill:#455a64"></path></g><g style="opacity:0.6000000000000001"><path d="M102.16,308.27a3.05,3.05,0,0,1,0,1.82,5.65,5.65,0,0,1-6.72,4.52,3,3,0,0,1-1.67-.73c0-.08.66.24,1.73.37a5.7,5.7,0,0,0,6.3-4.24C102.14,309,102.07,308.27,102.16,308.27Z" style="fill:#455a64"></path></g><g style="opacity:0.6000000000000001"><path d="M147.59,382.46h-.25l-.74-.06-2.83-.27L133.4,381,118,379.28l-4.46-.5A21.67,21.67,0,0,1,109,377.7a7.53,7.53,0,0,1-2.18-1.16,3.18,3.18,0,0,1-1.11-2.32,8.81,8.81,0,0,1,.25-2.52l.54-2.45c3-13.11,5.61-25,7.55-33.62,1-4.26,1.78-7.73,2.35-10.17l.66-2.76c.08-.29.14-.53.19-.72a.75.75,0,0,1,.08-.24.77.77,0,0,1,0,.25l-.14.73-.57,2.78c-.52,2.46-1.26,5.93-2.18,10.21-1.9,8.65-4.51,20.53-7.4,33.65a21,21,0,0,0-.79,4.82,2.66,2.66,0,0,0,.93,2,6.94,6.94,0,0,0,2,1.08c2.94,1.11,6,1.2,8.91,1.58l15.38,1.84,10.36,1.28,2.82.37.73.11A.83.83,0,0,1,147.59,382.46Z" style="fill:#455a64"></path></g><g style="opacity:0.6000000000000001"><path d="M205.8,334.64s-.06.06-.19.16l-.59.42-2.31,1.6-8.55,5.8-12.71,8.54-3.69,2.46a21.44,21.44,0,0,1-4.09,2.23,7.28,7.28,0,0,1-4.84.41A6.77,6.77,0,0,1,165,353a44.4,44.4,0,0,1-2.17-4.45q-1-2.22-2-4.36c-1.29-2.86-2.54-5.62-3.72-8.25l-6.28-14c-1.75-4-3.18-7.17-4.18-9.44L145.6,310l-.28-.68c-.06-.15-.08-.23-.07-.23a1.06,1.06,0,0,1,.12.21l.33.66,1.2,2.53c1,2.26,2.52,5.45,4.34,9.37l6.37,13.93,3.75,8.24,2,4.35a47,47,0,0,0,2.14,4.4,6.28,6.28,0,0,0,3.5,3,6.88,6.88,0,0,0,4.51-.39,22,22,0,0,0,4-2.17l3.69-2.45L194,342.31l8.63-5.66,2.37-1.51.62-.39Z" style="fill:#455a64"></path></g><path d="M78.71,223l20.05,17.13s-4.28,55.48-5.09,66.24l56.75-2.51-2.83-27,2.11-22,6.44,9.49,17.15-17.93L154.12,228h0a30.18,30.18,0,0,0-11.67-7.56,24.29,24.29,0,0,0-7.31-1.4h0c-5.88,1.82-11.36-.3-17.24-2.11C116.62,217.07,94,203,94,203Z" style="fill:#3f3d56"></path><path d="M150.28,255.86a14.69,14.69,0,0,1-2.3-3.11,15,15,0,0,1-1.85-3.39,14.69,14.69,0,0,1,2.3,3.11A14.51,14.51,0,0,1,150.28,255.86Z" style="fill:#263238"></path><path d="M106.85,307a.82.82,0,0,1,0-.23c0-.18,0-.4,0-.67.06-.63.13-1.49.22-2.58.22-2.29.53-5.51.91-9.48.81-8,2-19,3.54-31.21s3-23.18,4.21-31.13c.6-3.94,1.09-7.15,1.44-9.42q.27-1.6.42-2.55c0-.26.09-.48.13-.66a.79.79,0,0,1,.06-.23s0,.08,0,.24l-.07.67-.33,2.56c-.31,2.28-.74,5.49-1.28,9.44-1.08,8-2.54,19-4.06,31.14S109.28,286,108.37,294c-.45,4-.81,7.18-1.07,9.46-.13,1.08-.23,1.94-.31,2.57,0,.27-.07.49-.1.67A1.73,1.73,0,0,1,106.85,307Z" style="fill:#f5f5f5"></path><path d="M119,304c-.14,0,1.36-18.76,3.36-41.87s3.73-41.85,3.88-41.84-1.36,18.76-3.36,41.88S119.14,304,119,304Z" style="fill:#f5f5f5"></path><path d="M132.37,302.49c-.15,0,.27-18.71.92-41.76s1.3-41.76,1.45-41.76-.27,18.7-.93,41.77S132.51,302.49,132.37,302.49Z" style="fill:#f5f5f5"></path><path d="M146,304.72a5,5,0,0,1,0-.85q0-.92,0-2.46c0-2.19,0-5.26-.06-9-.08-7.63-.32-18.17-.92-29.79s-1.46-22.14-2.17-29.74c-.36-3.76-.66-6.82-.87-9-.09-1-.17-1.84-.23-2.45a5.53,5.53,0,0,1,0-.86,6.66,6.66,0,0,1,.15.85c.08.6.19,1.41.32,2.43.28,2.12.64,5.19,1,9,.8,7.59,1.71,18.1,2.32,29.74s.78,22.18.77,29.82c0,3.82,0,6.91-.1,9,0,1-.06,1.85-.08,2.46A4.67,4.67,0,0,1,146,304.72Z" style="fill:#f5f5f5"></path><path d="M164,255.66c-.12.07-4.24-7.35-9.19-16.58s-8.86-16.76-8.74-16.82,4.25,7.35,9.2,16.58S164.15,255.59,164,255.66Z" style="fill:#f5f5f5"></path><path d="M95.85,278.73a4.2,4.2,0,0,1,.05-.67l.24-1.89c.21-1.64.56-4,1-6.92.93-5.84,2.38-13.88,4.31-22.7s4-16.73,5.58-22.42c.8-2.85,1.47-5.15,2-6.73l.58-1.81a2.59,2.59,0,0,1,.23-.62,3.15,3.15,0,0,1-.13.65c-.13.47-.28,1.08-.48,1.84-.44,1.66-1.06,3.95-1.8,6.76-1.51,5.72-3.5,13.63-5.43,22.44s-3.44,16.83-4.46,22.65c-.49,2.86-.9,5.2-1.19,6.9-.14.77-.25,1.39-.34,1.87A3,3,0,0,1,95.85,278.73Z" style="fill:#f5f5f5"></path><path d="M89.2,233.51c-.12-.08,3.4-5.45,7.85-12s8.17-11.79,8.29-11.71-3.4,5.46-7.86,12S89.32,233.59,89.2,233.51Z" style="fill:#f5f5f5"></path><path d="M81.49,226.62a4.09,4.09,0,0,1,.47-.93c.33-.59.83-1.42,1.47-2.43,1.28-2,3.14-4.77,5.36-7.68s4.38-5.42,6-7.19c.8-.88,1.47-1.58,1.95-2a4.45,4.45,0,0,1,.78-.7,3.7,3.7,0,0,1-.63.83l-1.83,2.17c-1.54,1.82-3.64,4.36-5.86,7.26s-4.11,5.59-5.47,7.56l-1.6,2.34A3.74,3.74,0,0,1,81.49,226.62Z" style="fill:#f5f5f5"></path></g></svg>